<?xml version="1.0" encoding="UTF-8"?>
<svg version="1.1" xmlns="http://www.w3.org/2000/svg" width="936" height="525">
<path d="M0 0 C8.98087929 -0.07006052 17.96166194 -0.12309182 26.94275665 -0.15543652 C31.11476924 -0.17097426 35.28659245 -0.19198976 39.45849609 -0.22631836 C43.49802971 -0.25934296 47.53738324 -0.27694193 51.57704163 -0.28463173 C53.10452604 -0.29009911 54.63200262 -0.30077058 56.15940857 -0.31719017 C75.87721745 -0.52038013 94.68370046 2.5234962 110 16 C128.53178866 34.99946787 133.51567511 61.74759923 133.35351562 87.32641602 C132.89167103 109.90236931 127.29464084 133.17457826 111.2421875 149.9765625 C96.59993006 163.19030702 78.59384104 167.39659845 59.328125 167.1953125 C58.27969421 167.1924826 57.23126343 167.18965271 56.15106201 167.18673706 C52.85058455 167.17567322 49.55039339 167.15059568 46.25 167.125 C43.99219146 167.11495233 41.7343786 167.10582964 39.4765625 167.09765625 C33.98427974 167.07577936 28.49216033 167.04244283 23 167 C22.99761165 166.23762465 22.99522329 165.47524929 22.99276257 164.68977165 C22.93361665 146.13619287 22.85806917 127.58274716 22.76428509 109.02931023 C22.71932689 100.056987 22.67991227 91.08470346 22.65356445 82.11230469 C22.63058457 74.29160847 22.59718666 66.47103788 22.55129844 58.65044129 C22.52736605 54.50979953 22.50863739 50.36928218 22.50238609 46.22857285 C22.49633528 42.32972356 22.47633576 38.43119259 22.44572449 34.53246117 C22.43694418 33.10305301 22.43322168 31.67360326 22.43499184 30.24416924 C22.43664849 28.2887906 22.41815409 26.33342615 22.39872742 24.37814331 C22.39411845 23.28489683 22.38950949 22.19165035 22.38476086 21.06527519 C21.93704655 17.49846863 20.83353468 15.07563296 19 12 C17.13394906 10.73077628 17.13394906 10.73077628 14.9375 10.25 C14.15375 10.03214844 13.37 9.81429687 12.5625 9.58984375 C8.39098133 8.62963137 4.21497169 7.74795949 0 7 C0 4.69 0 2.38 0 0 Z M53 8 C52.8223735 25.82015489 52.65673673 43.64037945 52.50522423 61.46077538 C52.43459133 69.73579521 52.3600916 78.01074594 52.27636719 86.28564453 C52.20337073 93.50122902 52.13775337 100.7168372 52.08085597 107.93256724 C52.05049811 111.75034179 52.01654119 115.56800512 51.97373581 119.38566208 C51.93348869 122.9855818 51.90317593 126.58545401 51.88018608 130.18552399 C51.86531148 132.1231283 51.84016895 134.06064546 51.81462097 135.99813843 C51.36963391 148.20822473 51.36963391 148.20822473 56.5 158.625 C62.97874758 161.17022226 68.68597575 160.73019448 75.1875 158.375 C84.09995887 154.35182107 88.45194327 149.02190237 92 140 C103.0162177 110.16935718 105.40881292 78.18124389 98 47 C97.82984375 46.27699707 97.6596875 45.55399414 97.484375 44.80908203 C94.33891009 31.90986746 89.66935278 19.53988111 78 12 C71.44582585 8.69256953 60.03727076 4.48136462 53 8 Z " fill="#FFFFFF" transform="translate(126,131)"/>
<path d="M0 0 C1.23626129 -0.00066278 1.23626129 -0.00066278 2.49749756 -0.00133896 C32.56637241 -0.00971315 62.45364022 0.82184361 92.4375 3.25 C93.52385742 3.33721313 94.61021484 3.42442627 95.72949219 3.51428223 C185.10993683 10.75352612 274.01872372 25.46905793 359.4375 53.25 C360.07546509 53.4564917 360.71343018 53.6629834 361.37072754 53.87573242 C395.68128493 64.99667415 429.94058778 78.57846509 461.4375 96.25 C461.1075 96.91 460.7775 97.57 460.4375 98.25 C459.89786621 98.00467529 459.35823242 97.75935059 458.80224609 97.5065918 C441.98135899 89.91000556 424.84668263 83.35079055 407.4375 77.25 C406.78160889 77.01970093 406.12571777 76.78940186 405.44995117 76.55212402 C384.06391334 69.05848784 362.46151691 62.60285198 340.55560303 56.81060791 C338.53965376 56.2770375 336.52486181 55.7392926 334.51025391 55.20068359 C230.92527687 27.69870458 122.64565941 16.54979545 -2.5625 14.25 C-3.83013184 14.23340332 -5.09776367 14.21680664 -6.40380859 14.19970703 C-14.12556461 14.10959577 -21.84103821 14.14867364 -29.5625 14.25 C-30.30348938 14.25860046 -31.04447876 14.26720093 -31.80792236 14.27606201 C-130.04400196 15.42236096 -228.33294171 24.04383237 -324.5625 44.25 C-325.38925232 44.42360046 -326.21600464 44.59720093 -327.06781006 44.77606201 C-361.85973583 52.11438093 -396.13034516 60.96001561 -429.9375 72 C-430.8875592 72.31020081 -431.83761841 72.62040161 -432.81646729 72.94000244 C-445.50412315 77.10057298 -458.06402815 81.5525154 -470.5625 86.25 C-470.5625 85.59 -470.5625 84.93 -470.5625 84.25 C-394.35341852 47.60376567 -308.99701668 27.5819448 -103.4453125 2.59765625 C-102.40647415 2.53293373 -102.40647415 2.53293373 -101.34664917 2.46690369 C-86.83095967 1.60635803 -72.29704199 1.09332936 -57.76171875 0.71484375 C-56.95532518 0.69368248 -56.14893162 0.67252121 -55.31810188 0.65071869 C-36.87952808 0.17562013 -18.44427061 0.00460539 0 0 Z " fill="#FFFFFF" transform="translate(472.5625,1.75)"/>
<path d="M0 0 C38.94 0 77.88 0 118 0 C119.16071429 25.53571429 119.16071429 25.53571429 119 37 C116.36 37 113.72 37 111 37 C110.84144531 36.05898437 110.68289063 35.11796875 110.51953125 34.1484375 C108.88776793 24.42292405 108.88776793 24.42292405 103 17 C94.53292035 12.53553982 85.90327479 12.81362323 76.57739258 12.81469727 C74.4400667 12.81250264 72.30325101 12.79428684 70.16601562 12.77539062 C68.79687675 12.77245748 67.42773544 12.77047216 66.05859375 12.76953125 C64.82423584 12.76542236 63.58987793 12.76131348 62.31811523 12.75708008 C57.82905337 12.96063212 57.82905337 12.96063212 54 15 C51.4587524 21.75740958 51.6683523 29.35375393 51.5859375 36.4765625 C51.56657135 37.52782318 51.5472052 38.57908386 51.5272522 39.66220093 C51.46800698 42.98305431 51.42129322 46.30394341 51.375 49.625 C51.33676946 51.89194127 51.29771487 54.15886879 51.2578125 56.42578125 C51.16235153 61.95039786 51.07714705 67.47509889 51 73 C55.08970032 72.90535595 59.17892676 72.79904077 63.26806641 72.68261719 C64.65470413 72.64469755 66.0414279 72.60978547 67.42822266 72.578125 C81.27309788 72.75051588 81.27309788 72.75051588 93.875 68.0625 C96.89547123 63.70946793 98.42321162 59.02986685 100 54 C102.64 54 105.28 54 108 54 C108 71.16 108 88.32 108 106 C105.36 106 102.72 106 100 106 C99.83564453 105.00419922 99.83564453 105.00419922 99.66796875 103.98828125 C98.79186235 99.10915213 98.05682501 95.03500901 95 91 C94.5875 90.443125 94.175 89.88625 93.75 89.3125 C88.9639439 85.72295793 82.63144078 85.67984741 76.87890625 85.5859375 C76.13414536 85.56657135 75.38938446 85.5472052 74.62205505 85.5272522 C72.26898251 85.46799844 69.91585957 85.42129086 67.5625 85.375 C65.95636017 85.33677015 64.35023975 85.29771558 62.74414062 85.2578125 C58.82958675 85.1623425 54.91493709 85.07811457 51 85 C51.08462936 92.44153435 51.17959891 99.88286248 51.28752708 107.32409763 C51.33733064 110.77990825 51.383661 114.23569065 51.421875 117.69165039 C51.46603116 121.67090628 51.52561591 125.64986131 51.5859375 129.62890625 C51.59748871 130.86145645 51.60903992 132.09400665 51.62094116 133.36390686 C51.67992922 141.89869282 51.67992922 141.89869282 54 150 C56.73572803 151.73859609 58.87787676 152.25336918 62.09082031 152.2746582 C62.88554749 152.28419022 63.68027466 152.29372223 64.49908447 152.30354309 C65.35016785 152.30263168 66.20125122 152.30172028 67.078125 152.30078125 C68.40623199 152.30720894 68.40623199 152.30720894 69.76116943 152.31376648 C71.63390245 152.3195043 73.50665775 152.32001408 75.37939453 152.31567383 C78.22597992 152.31252656 81.07151274 152.33593535 83.91796875 152.36132812 C85.7421862 152.36360264 87.56640642 152.36430391 89.390625 152.36328125 C90.23361145 152.372491 91.0765979 152.38170074 91.94512939 152.39118958 C98.44411904 152.3410483 104.28899991 151.417919 109.3125 146.9375 C112.49847061 141.39155117 113.80775906 135.23976568 115 129 C117.64 129 120.28 129 123 129 C123.02475469 133.62646089 123.04288594 138.25288306 123.05493164 142.87939453 C123.05995437 144.45264355 123.06677375 146.02588792 123.07543945 147.59912109 C123.08759529 149.86296743 123.09324896 152.12675193 123.09765625 154.390625 C123.10281754 155.09181458 123.10797882 155.79300415 123.11329651 156.51544189 C123.11368745 159.93355044 122.83781027 162.64875894 122 166 C89.33 166 56.66 166 23 166 C23.02320313 155.86539063 23.04640625 145.73078125 23.0703125 135.2890625 C23.08053322 128.86328023 23.09024415 122.43750386 23.09765625 116.01171875 C23.10951206 105.81557192 23.12343107 95.61945821 23.15087891 85.42333984 C23.17086162 77.99674783 23.183728 70.57018274 23.18817699 63.14356458 C23.19077612 59.21404966 23.19685182 55.28461176 23.21146011 51.35512161 C23.22512128 47.65007989 23.22920554 43.9451463 23.22621536 40.24008179 C23.22702056 38.24527603 23.23773726 36.25048181 23.24884033 34.25570679 C23.26540477 23.97242131 23.26540477 23.97242131 21 14 C16.91711205 10.09884297 12.52059174 9.13880872 7.125 8.25 C6.43664062 8.12496094 5.74828125 7.99992188 5.0390625 7.87109375 C3.36158618 7.56821608 1.68105912 7.28231527 0 7 C0 4.69 0 2.38 0 0 Z " fill="#FFFFFF" transform="translate(499,130)"/>
<path d="M0 0 C1.38761458 0.44214798 2.77531313 0.8840325 4.16308594 1.32568359 C47.92528905 15.29449998 93.36076659 31.53666546 133 55 C128.9516042 56.34946527 126.60991421 54.8767387 122.87890625 53.2734375 C121.39048213 52.65416768 119.90203715 52.03494801 118.41357422 51.41577148 C117.62497009 51.08358612 116.83636597 50.75140076 116.02386475 50.40914917 C111.81239014 48.63968653 107.58459057 46.91037172 103.35546875 45.18359375 C102.48674133 44.82884476 101.61801392 44.47409576 100.72296143 44.1085968 C60.91256912 27.93287569 19.58443049 14.75936415 -22 4 C-22.7986145 3.79330688 -23.597229 3.58661377 -24.42004395 3.37365723 C-89.41823356 -13.3863178 -155.76683826 -24.27699313 -222.75048828 -28.84570312 C-224.97331721 -28.99816979 -227.19561804 -29.15714024 -229.41796875 -29.31640625 C-282.24414104 -33.01394873 -336.180059 -32.44722028 -389 -29 C-389.99020142 -28.93683594 -390.98040283 -28.87367187 -392.00061035 -28.80859375 C-472.24419307 -23.66796462 -551.92273579 -12.36588566 -630 7 C-631.13930969 7.28200256 -631.13930969 7.28200256 -632.30163574 7.56970215 C-664.06765151 15.45692822 -695.47541073 24.78636667 -726.07446289 36.4309082 C-726.73275085 36.67881104 -727.39103882 36.92671387 -728.0692749 37.18212891 C-729.83620989 37.84893563 -731.59952329 38.52531696 -733.36254883 39.20239258 C-736 40 -736 40 -738 39 C-728.84762052 34.27137194 -719.65269828 30.03277887 -710.0625 26.25 C-709.10449493 25.87065308 -709.10449493 25.87065308 -708.12713623 25.48364258 C-633.04735123 -4.20083129 -553.87824122 -22.15231499 -474 -33 C-473.13858398 -33.11796936 -472.27716797 -33.23593872 -471.38964844 -33.35748291 C-380.52048602 -45.76849228 -287.33049274 -49.19459132 0 0 Z " fill="#FFFFFF" transform="translate(770,74)"/>
<path d="M0 0 C1.02125977 0.00201416 2.04251953 0.00402832 3.09472656 0.00610352 C15.32723029 0.16261808 27.85907482 1.33976871 39.75 4.3125 C39.75 10.9125 39.75 17.5125 39.75 24.3125 C35.2640625 22.6728125 35.2640625 22.6728125 30.6875 21 C16.75040132 16.07822867 -2.37543337 9.69173564 -16.9375 15.75 C-22.00378144 19.00200498 -25.39971627 24.05727176 -26.91015625 29.83984375 C-28.03622442 38.24005342 -26.28910318 45.03923272 -21.31616211 51.90087891 C-14.05911587 60.37129162 -3.58338183 65.54780517 6.25 70.375 C23.55436558 78.92875067 43.41755031 89.53656771 50.6875 108.6875 C53.94948881 121.57235581 53.1567764 136.97800457 46.46484375 148.53125 C36.67972093 162.70468696 22.91627819 168.01662269 6.75 171.3125 C3.40619648 171.85991667 0.13435708 172.18145587 -3.25 172.3125 C-4.03632812 172.35246094 -4.82265625 172.39242187 -5.6328125 172.43359375 C-21.29518855 172.84071973 -37.11184353 170.12177467 -52.25 166.3125 C-53.25 165.3125 -53.25 165.3125 -53.36352539 163.27124023 C-53.35828857 162.39669189 -53.35305176 161.52214355 -53.34765625 160.62109375 C-53.34282227 159.20473633 -53.34282227 159.20473633 -53.33789062 157.75976562 C-53.32951172 156.76654297 -53.32113281 155.77332031 -53.3125 154.75 C-53.30798828 153.75291016 -53.30347656 152.75582031 -53.29882812 151.72851562 C-53.28700007 149.25645151 -53.27051849 146.78450482 -53.25 144.3125 C-52.17363281 144.84359375 -51.09726562 145.3746875 -49.98828125 145.921875 C-32.92524557 154.22376607 -13.10932003 162.26193524 6.125 157.125 C12.44587799 154.90858824 17.00585884 152.25868547 20.125 146.1875 C23.4717357 138.70827326 24.27329996 129.72683791 22.03125 121.7578125 C21.07964375 119.7855318 20.0380909 118.08096803 18.75 116.3125 C18.04875 115.301875 17.3475 114.29125 16.625 113.25 C10.12119278 105.92784107 0.59588757 101.42070233 -7.9375 96.9375 C-10.06104101 95.80031296 -12.18343969 94.66099018 -14.3046875 93.51953125 C-15.32401367 92.97119629 -16.34333984 92.42286133 -17.39355469 91.85791016 C-32.4047593 83.73646356 -47.76592006 74.73832706 -54.0625 57.9375 C-57.33262864 46.68670028 -57.02964898 34.62956025 -52 23.9375 C-45.79471716 12.82194986 -37.20336139 7.49928394 -25.37890625 3.171875 C-16.94511257 0.85547724 -8.72968911 -0.04752343 0 0 Z " fill="#FFFFFF" transform="translate(759.25,126.6875)"/>
<path d="M0 0 C39.27 0 78.54 0 119 0 C119.33 12.21 119.66 24.42 120 37 C117.36 37 114.72 37 112 37 C111.82984375 36.13117188 111.6596875 35.26234375 111.484375 34.3671875 C109.69117282 24.24729874 109.69117282 24.24729874 103.17578125 16.796875 C95.09358619 12.42479234 86.5964591 12.81366191 77.63232422 12.81469727 C75.50598258 12.81250616 73.3801567 12.79430045 71.25390625 12.77539062 C69.88802259 12.77245675 68.52213649 12.77047191 67.15625 12.76953125 C65.92712891 12.76542236 64.69800781 12.76131348 63.43164062 12.75708008 C59.9361435 13.00452029 57.22014632 13.63252001 54 15 C52.71156795 17.5768641 52.83996567 19.48218759 52.79467773 22.36767578 C52.77473251 23.48868683 52.75478729 24.60969788 52.73423767 25.76467896 C52.70916893 27.58659256 52.70916893 27.58659256 52.68359375 29.4453125 C52.66281265 30.68546112 52.64203156 31.92560974 52.62062073 33.20333862 C52.56622295 36.50111823 52.51599905 39.7989272 52.46777344 43.09680176 C52.41754766 46.46172653 52.36186723 49.8265605 52.30664062 53.19140625 C52.19938443 59.79419854 52.09762811 66.39705872 52 73 C56.5537426 72.93066728 61.10660645 72.84248679 65.65966797 72.73754883 C67.20546643 72.70449138 68.75138004 72.67640097 70.29736328 72.65356445 C83.6041644 72.72163232 83.6041644 72.72163232 95.390625 67.171875 C97.31264292 64.57808382 98.0041657 62.38250404 98.75 59.25 C99.11351562 57.77273437 99.11351562 57.77273437 99.484375 56.265625 C99.65453125 55.51796875 99.8246875 54.7703125 100 54 C102.64 54 105.28 54 108 54 C108 71.16 108 88.32 108 106 C105.69 106 103.38 106 101 106 C100.82984375 105.27554688 100.6596875 104.55109375 100.484375 103.8046875 C98.53109527 95.77587991 98.53109527 95.77587991 94 89 C82.11522534 84.05130435 82.11522534 84.05130435 52 85 C52 111.73 52 138.46 52 166 C42.76 166 33.52 166 24 166 C23.97494385 161.87717529 23.9498877 157.75435059 23.92407227 153.5065918 C23.84050737 139.86804479 23.75188026 126.22953459 23.66066074 112.5910368 C23.60549048 104.32396993 23.55203603 96.05689875 23.50268555 87.78979492 C23.45964431 80.58034509 23.41331779 73.37092495 23.36312145 66.16152126 C23.33668009 62.3477133 23.31183282 58.53391062 23.29092598 54.72006798 C23.27115286 51.1225378 23.24695177 47.52506329 23.21950912 43.92758369 C23.20586614 41.99383576 23.19677921 40.06005732 23.18788147 38.12628174 C23.95708435 24.17254985 23.95708435 24.17254985 19 12 C12.9293632 9.07308583 6.62549297 8.03523328 0 7 C0 4.69 0 2.38 0 0 Z " fill="#FFFFFF" transform="translate(311,130)"/>
<path d="M0 0 C3.18400113 2.60090695 4.99925733 4.34902637 5.4921875 8.4609375 C5.83956313 16.8505853 5.83956313 16.8505853 3.80859375 20.05859375 C2.71504382 21.20277099 1.60127982 22.32809499 0.46484375 23.4296875 C-1.11179986 24.90770417 -1.11179986 24.90770417 -0.87890625 27.63671875 C0.20302852 29.92787474 1.23936206 31.28061431 3.18359375 32.88671875 C3.51359375 31.56671875 3.84359375 30.24671875 4.18359375 28.88671875 C5.6656587 29.14121475 7.1442799 29.41583637 8.62109375 29.69921875 C9.44480469 29.85003906 10.26851562 30.00085938 11.1171875 30.15625 C11.79910156 30.39730469 12.48101563 30.63835937 13.18359375 30.88671875 C14.3942454 34.51867371 13.8114419 35.95203504 12.74609375 39.57421875 C12.31490234 41.06501953 12.31490234 41.06501953 11.875 42.5859375 C11.64683594 43.34519531 11.41867187 44.10445313 11.18359375 44.88671875 C13.16359375 46.53671875 15.14359375 48.18671875 17.18359375 49.88671875 C15.93441955 53.34597038 14.5083158 56.03365078 12.18359375 58.88671875 C9.56778922 58.4196108 8.28429735 57.97442834 6.24609375 56.19921875 C5.56546875 55.76609375 4.88484375 55.33296875 4.18359375 54.88671875 C1.57023703 55.62381936 -0.59645523 56.77360108 -3.00390625 58.01171875 C-8.52850501 59.73048281 -14.45823478 59.96853158 -19.69140625 57.26171875 C-23.52493884 54.34823398 -25.82478348 51.44841092 -27.56640625 46.94921875 C-28.32783438 40.66743669 -27.8828533 35.4467601 -24.81640625 29.88671875 C-22.94788294 27.64734349 -21.00702325 25.83393386 -18.81640625 23.88671875 C-19.03296875 23.31824219 -19.24953125 22.74976563 -19.47265625 22.1640625 C-21.70394767 15.97636082 -22.96949717 11.04254652 -20.62890625 4.63671875 C-18.26449685 1.04933897 -15.89616067 -0.25269322 -12.00390625 -1.86328125 C-7.7424053 -2.35030993 -3.6964298 -2.26555375 0 0 Z M-10.44140625 8.38671875 C-10.89515625 8.88171875 -11.34890625 9.37671875 -11.81640625 9.88671875 C-10.54694111 14.71114059 -10.54694111 14.71114059 -6.81640625 17.88671875 C-5.04755487 16.34858711 -3.90463617 15.06906057 -2.87890625 12.94921875 C-2.58607735 10.67322071 -2.58607735 10.67322071 -4.62890625 8.63671875 C-7.24740565 6.54191923 -7.93277102 6.07105546 -10.44140625 8.38671875 Z M-14.94140625 34.94921875 C-17.28450084 38.62006695 -17.43941639 40.60352405 -16.81640625 44.88671875 C-15.41955619 47.53370595 -15.41955619 47.53370595 -12.81640625 48.88671875 C-7.75947726 48.74390367 -7.75947726 48.74390367 -3.81640625 45.88671875 C-4.17689669 42.44366721 -5.85966158 39.97113865 -7.75390625 37.13671875 C-8.54087891 35.93789063 -8.54087891 35.93789063 -9.34375 34.71484375 C-9.82972656 34.1115625 -10.31570313 33.50828125 -10.81640625 32.88671875 C-13.07076926 32.65456029 -13.07076926 32.65456029 -14.94140625 34.94921875 Z " fill="#FFFFFF" transform="translate(795.81640625,373.11328125)"/>
<path d="M0 0 C27.02941176 0 27.02941176 0 33.8125 5.125 C40.81555825 14.32901942 41.77057342 24.73036371 41 36 C39.65854686 44.15721876 37.72490478 50.63850056 31.4375 56.3125 C22.05044553 62.81123002 12.65104467 59 0 59 C0 39.53 0 20.06 0 0 Z M11 12 C11 24.21 11 36.42 11 49 C18.84932571 49.10607892 18.84932571 49.10607892 26 47 C31.37637154 40.36914177 30.51026522 31.07312477 30 23 C28.91875577 17.73688472 27.42786091 15.32089568 23 12 C19.04 12 15.08 12 11 12 Z " fill="#FFFFFF" transform="translate(148,372)"/>
<path d="M0 0 C0.845625 -0.00773437 1.69125 -0.01546875 2.5625 -0.0234375 C5.46840714 0.45156655 6.87790253 1.36097231 9 3.375 C9 4.035 9 4.695 9 5.375 C9.969375 4.55 10.93875 3.725 11.9375 2.875 C15.6145718 0.25704422 18.44429524 -0.32123999 22.91796875 -0.046875 C26.16042004 0.61013202 27.82123201 1.93213892 30 4.375 C32.20883445 8.62606464 32.26268714 12.6150888 32.1953125 17.30078125 C32.1924826 18.04837204 32.18965271 18.79596283 32.18673706 19.56620789 C32.17559469 21.9401388 32.15050162 24.31368425 32.125 26.6875 C32.11496249 28.3027289 32.10583799 29.91796376 32.09765625 31.53320312 C32.07567489 35.48061594 32.04118657 39.42774274 32 43.375 C28.7 43.375 25.4 43.375 22 43.375 C21.970271 42.14197144 21.970271 42.14197144 21.93994141 40.8840332 C21.84455397 37.15153874 21.73492911 33.4195933 21.625 29.6875 C21.5940625 28.39392578 21.563125 27.10035156 21.53125 25.76757812 C21.47324219 23.89682617 21.47324219 23.89682617 21.4140625 21.98828125 C21.3826416 20.84141846 21.3512207 19.69455566 21.31884766 18.51293945 C21.00576348 15.43172128 20.30329197 13.1667886 19 10.375 C17.35 10.705 15.7 11.035 14 11.375 C12.43078031 15.57610394 11.7188979 19.17210398 11.5859375 23.6484375 C11.54726562 24.80214844 11.50859375 25.95585937 11.46875 27.14453125 C11.4378125 28.33433594 11.406875 29.52414062 11.375 30.75 C11.33632812 31.96300781 11.29765625 33.17601562 11.2578125 34.42578125 C11.16386214 37.40870521 11.07819193 40.39162825 11 43.375 C7.7 43.375 4.4 43.375 1 43.375 C0.67 32.485 0.34 21.595 0 10.375 C-4.77318253 9.82206423 -4.77318253 9.82206423 -6.78051758 11.95410156 C-8.37452156 15.11849464 -8.43410978 17.57040578 -8.51171875 21.109375 C-8.54716797 22.40488281 -8.58261719 23.70039063 -8.61914062 25.03515625 C-8.64223867 26.39843226 -8.66502114 27.76171364 -8.6875 29.125 C-8.72068648 30.50393862 -8.75517738 31.8828465 -8.79101562 33.26171875 C-8.87352291 36.63273059 -8.94266771 40.00348128 -9 43.375 C-12.63 43.375 -16.26 43.375 -20 43.375 C-20 29.515 -20 15.655 -20 1.375 C-16.7 1.375 -13.4 1.375 -10 1.375 C-9.67 2.035 -9.34 2.695 -9 3.375 C-8.443125 2.88773437 -7.88625 2.40046875 -7.3125 1.8984375 C-4.62047377 0.12497427 -3.18983729 -0.02917534 0 0 Z " fill="#FFFFFF" transform="translate(212,462.625)"/>
<path d="M0 0 C1.0209375 0.9590625 1.0209375 0.9590625 2.0625 1.9375 C2.743125 1.298125 3.42375 0.65875 4.125 0 C7.64482584 -2.47136708 9.77707806 -2.98731716 14.0625 -3.0625 C17.51130341 -1.86868344 19.46941248 -0.7373927 21.875 2 C25.21448702 10.2608363 24.04729546 19.85447634 23.625 28.5625 C23.57279297 29.75746094 23.52058594 30.95242188 23.46679688 32.18359375 C23.33839095 35.10191033 23.20349488 38.01976918 23.0625 40.9375 C19.7625 40.9375 16.4625 40.9375 13.0625 40.9375 C13.07297363 40.15101074 13.08344727 39.36452148 13.09423828 38.55419922 C13.13593991 34.97366561 13.16187139 31.39318324 13.1875 27.8125 C13.20425781 26.575 13.22101563 25.3375 13.23828125 24.0625 C13.24472656 22.86367188 13.25117188 21.66484375 13.2578125 20.4296875 C13.26828613 19.32995605 13.27875977 18.23022461 13.28955078 17.09716797 C13.04923701 13.75293058 12.25159337 11.06041305 11.0625 7.9375 C8.61769921 8.12578772 8.61769921 8.12578772 6.0625 8.9375 C3.74352827 12.27817228 3.75701983 15.47177278 3.6484375 19.453125 C3.60976563 20.70351563 3.57109375 21.95390625 3.53125 23.2421875 C3.48484375 25.19511719 3.48484375 25.19511719 3.4375 27.1875 C3.39882813 28.50492187 3.36015625 29.82234375 3.3203125 31.1796875 C3.22603818 34.43215161 3.1404325 37.68460996 3.0625 40.9375 C-0.2375 40.9375 -3.5375 40.9375 -6.9375 40.9375 C-7.2675 30.0475 -7.5975 19.1575 -7.9375 7.9375 C-9.9175 7.9375 -11.8975 7.9375 -13.9375 7.9375 C-17.50387506 11.50387506 -17.09894821 15.58301502 -17.25390625 20.453125 C-17.29580078 21.70351563 -17.33769531 22.95390625 -17.38085938 24.2421875 C-17.42017578 25.54414063 -17.45949219 26.84609375 -17.5 28.1875 C-17.54318359 29.50492187 -17.58636719 30.82234375 -17.63085938 32.1796875 C-17.73691917 35.43218788 -17.83898024 38.68476392 -17.9375 41.9375 C-21.2375 41.9375 -24.5375 41.9375 -27.9375 41.9375 C-27.9375 27.4175 -27.9375 12.8975 -27.9375 -2.0625 C-24.9675 -2.0625 -21.9975 -2.0625 -18.9375 -2.0625 C-18.6075 -1.0725 -18.2775 -0.0825 -17.9375 0.9375 C-17.07125 0.2259375 -17.07125 0.2259375 -16.1875 -0.5 C-10.89408895 -4.17597989 -5.2723209 -3.70184233 0 0 Z " fill="#FFFFFF" transform="translate(389.9375,390.0625)"/>
<path d="M0 0 C3.12729304 2.53230921 4.81282024 4.95314776 6.125 8.8125 C6.3125 12.6875 6.3125 12.6875 6.125 15.8125 C2.495 15.8125 -1.135 15.8125 -4.875 15.8125 C-5.16375 14.843125 -5.4525 13.87375 -5.75 12.875 C-6.51714682 9.70585797 -6.51714682 9.70585797 -8.875 8.8125 C-14.20467208 8.47157959 -14.20467208 8.47157959 -18.875 10.8125 C-18.84406827 13.22835574 -18.84406827 13.22835574 -17.875 15.8125 C-15.06580469 17.71060494 -12.26484337 18.69997339 -9.01953125 19.63671875 C-2.15189143 21.65862016 2.48404648 23.42391241 6.125 29.8125 C8.59552938 35.50545901 8.47710816 40.84151142 7.125 46.8125 C4.69279738 51.67690523 1.81175698 54.12010769 -2.875 56.8125 C-8.46366976 58.67538992 -15.20546712 58.78663506 -20.75 56.625 C-26.40883764 53.34287417 -29.19339794 49.90683491 -31.39453125 43.875 C-31.875 41.8125 -31.875 41.8125 -31.875 36.8125 C-26.925 36.3175 -26.925 36.3175 -21.875 35.8125 C-21.19140625 38.12369792 -20.5078125 40.43489583 -19.82421875 42.74609375 C-19.51097656 43.42800781 -19.19773437 44.10992187 -18.875 44.8125 C-14.83441768 46.15936077 -11.09977561 46.371083 -6.875 45.8125 C-4.63891002 44.33119332 -4.63891002 44.33119332 -3.875 41.8125 C-3.62413276 38.64517579 -3.62413276 38.64517579 -3.875 35.8125 C-4.40867187 35.64234375 -4.94234375 35.4721875 -5.4921875 35.296875 C-7.96200493 34.49354338 -10.41808979 33.65445446 -12.875 32.8125 C-13.73738281 32.5340625 -14.59976563 32.255625 -15.48828125 31.96875 C-22.24965111 29.58841949 -26.62711584 26.30826832 -29.875 19.8125 C-30.40339495 13.59369791 -30.59993456 8.07878679 -26.875 2.8125 C-20.18331231 -4.27281638 -8.10178386 -5.27637184 0 0 Z " fill="#FFFFFF" transform="translate(560.875,449.1875)"/>
<path d="M0 0 C2.30859375 1.5234375 2.30859375 1.5234375 4 3 C4.33 2.34 4.66 1.68 5 1 C7.97 1 10.94 1 14 1 C14.09922675 7.68940961 14.17163877 14.3783863 14.21972656 21.06835938 C14.23978317 23.34187284 14.26703538 25.6153351 14.30175781 27.88867188 C14.35053712 31.16549349 14.37302897 34.44163025 14.390625 37.71875 C14.41127014 38.72740112 14.43191528 39.73605225 14.45318604 40.77526855 C14.45515187 47.02426073 13.64100288 51.80784761 10 57 C6.09709752 60.37584385 2.61524955 60.40553021 -2.4375 60.375 C-4.35369141 60.38660156 -4.35369141 60.38660156 -6.30859375 60.3984375 C-10.24185135 59.97389541 -12.66008595 59.08682961 -16 57 C-18.72120171 52.91819743 -19.34739006 49.86346089 -19 45 C-17.3739713 45.06000106 -15.74898451 45.1487885 -14.125 45.25 C-13.22007812 45.29640625 -12.31515625 45.3428125 -11.3828125 45.390625 C-9 46 -9 46 -7.6796875 48.046875 C-7.45539063 48.69140625 -7.23109375 49.3359375 -7 50 C-1.67829506 50.29562367 -1.67829506 50.29562367 3 48 C3.36297936 46.02252878 3.36297936 46.02252878 3.1875 43.875 C3.125625 42.59625 3.06375 41.3175 3 40 C2.525625 40.495 2.05125 40.99 1.5625 41.5 C-2.24169657 43.72684677 -5.69325643 43.54799067 -10 43 C-15.10010723 41.07329282 -16.69033283 37.70182244 -19 33 C-21.59881045 25.25554486 -21.28124602 14.54907071 -17.8125 7.1875 C-13.51798724 0.08962475 -8.05511979 -1.33597109 0 0 Z M-7.25 12.3125 C-10.12608361 16.72934269 -10.5665556 20.83262222 -10 26 C-8.65059348 29.31217963 -7.5207227 31.4792773 -5 34 C-2.58582128 34.58402133 -2.58582128 34.58402133 0 34 C3.42290832 31.1475764 4.33166485 28.39841784 4.9375 24.125 C5.2594232 19.22298765 4.39571649 16.25905154 2 12 C0.17899853 9.80079504 0.17899853 9.80079504 -2.375 9.5625 C-5.22112844 9.77051207 -5.22112844 9.77051207 -7.25 12.3125 Z " fill="#FFFFFF" transform="translate(335,463)"/>
<path d="M0 0 C11.88 0 23.76 0 36 0 C36 3.3 36 6.6 36 10 C27.75 10 19.5 10 11 10 C11 13.96 11 17.92 11 22 C18.92 22 26.84 22 35 22 C35 25.63 35 29.26 35 33 C27.08 33 19.16 33 11 33 C11 37.95 11 42.9 11 48 C19.58 48 28.16 48 37 48 C37 51.3 37 54.6 37 58 C24.79 58 12.58 58 0 58 C0 38.86 0 19.72 0 0 Z " fill="#FFFFFF" transform="translate(148,448)"/>
<path d="M0 0 C0.80711426 0.04310303 1.61422852 0.08620605 2.44580078 0.13061523 C3.4717334 0.19192627 4.49766602 0.2532373 5.5546875 0.31640625 C10.4428125 0.59484375 10.4428125 0.59484375 15.4296875 0.87890625 C17.7396875 8.46890625 20.0496875 16.05890625 22.4296875 23.87890625 C24.70564732 17.86982644 24.70564732 17.86982644 26.81640625 11.81640625 C27.03232422 11.16542969 27.24824219 10.51445312 27.47070312 9.84375 C27.68404297 9.19535156 27.89738281 8.54695313 28.1171875 7.87890625 C28.34212891 7.19957031 28.56707031 6.52023437 28.79882812 5.8203125 C29.34385304 4.17364149 29.88697764 2.5263417 30.4296875 0.87890625 C34.0596875 0.87890625 37.6896875 0.87890625 41.4296875 0.87890625 C39.60053362 6.70087209 37.76737073 12.52155399 35.93041992 18.34106445 C35.30560697 20.32248402 34.68190645 22.30425472 34.05932617 24.28637695 C33.16614795 27.12934121 32.26902459 29.9710338 31.37109375 32.8125 C31.0918959 33.70416367 30.81269806 34.59582733 30.52503967 35.51451111 C30.26484543 36.33528641 30.00465118 37.15606171 29.73657227 38.00170898 C29.50784927 38.72784897 29.27912628 39.45398895 29.04347229 40.20213318 C28.4296875 41.87890625 28.4296875 41.87890625 27.4296875 42.87890625 C24.42965305 43.02068482 21.43211515 42.92119396 18.4296875 42.87890625 C15.11544825 34.96358865 12.35830203 26.90317651 9.6796875 18.75390625 C9.26847656 17.51125 8.85726562 16.26859375 8.43359375 14.98828125 C7.42952495 11.95272442 6.42828877 8.91626518 5.4296875 5.87890625 C4.4396875 7.85890625 3.4496875 9.83890625 2.4296875 11.87890625 C1.3159375 11.81703125 0.2021875 11.75515625 -0.9453125 11.69140625 C-2.7396875 11.78421875 -2.7396875 11.78421875 -4.5703125 11.87890625 C-6.95979447 15.46312921 -6.87264418 17.25123221 -6.984375 21.515625 C-7.04238281 23.4637207 -7.04238281 23.4637207 -7.1015625 25.45117188 C-7.13301767 26.82291198 -7.16426501 28.19465686 -7.1953125 29.56640625 C-7.23350447 30.9498941 -7.27255692 32.33335848 -7.3125 33.71679688 C-7.40691767 37.10403075 -7.49249368 40.49125694 -7.5703125 43.87890625 C-10.8703125 43.54890625 -14.1703125 43.21890625 -17.5703125 42.87890625 C-17.5703125 29.01890625 -17.5703125 15.15890625 -17.5703125 0.87890625 C-13.90364583 0.87890625 -10.23697917 0.87890625 -6.5703125 0.87890625 C-4.11781157 -0.34734422 -2.72720815 -0.1553473 0 0 Z " fill="#FFFFFF" transform="translate(631.5703125,463.12109375)"/>
<path d="M0 0 C0 4.95 0 9.9 0 15 C1.98 14.67 3.96 14.34 6 14 C6 17.3 6 20.6 6 24 C3.69 24 1.38 24 -1 24 C-0.505 35.88 -0.505 35.88 0 48 C2.475 47.505 2.475 47.505 5 47 C5.495 51.95 5.495 51.95 6 57 C1.29317654 59.50049996 -1.92850351 59.0633783 -7 58 C-9.05244414 56.45830233 -9.86601924 55.48902978 -10.546875 53.00390625 C-11.3525817 43.31993153 -10.61610052 33.67751741 -10 24 C-11.65 24 -13.3 24 -15 24 C-15.33 23.01 -15.66 22.02 -16 21 C-16.99 23.475 -16.99 23.475 -18 26 C-18.763125 25.79375 -19.52625 25.5875 -20.3125 25.375 C-23.21885944 24.66608797 -23.21885944 24.66608797 -26 27 C-27.07955212 30.23865635 -27.20441741 32.79155838 -27.31640625 36.19921875 C-27.35830078 37.40771484 -27.40019531 38.61621094 -27.44335938 39.86132812 C-27.48267578 41.12396484 -27.52199219 42.38660156 -27.5625 43.6875 C-27.60568359 44.96173828 -27.64886719 46.23597656 -27.69335938 47.54882812 C-27.7995486 50.69910852 -27.90159533 53.84946839 -28 57 C-31.3 57 -34.6 57 -38 57 C-38 42.81 -38 28.62 -38 14 C-35.03 14 -32.06 14 -29 14 C-28.67 14.66 -28.34 15.32 -28 16 C-27.01 15.34 -26.02 14.68 -25 14 C-19.84544283 13.74227214 -15.07996828 14.15333862 -10 15 C-10.0928125 14.41992188 -10.185625 13.83984375 -10.28125 13.2421875 C-10.5224541 10.63201453 -10.55979279 8.56919826 -10 6 C-7.41519712 3.07881867 -4.05786805 0 0 0 Z " fill="#FFFFFF" transform="translate(351,374)"/>
<path d="M0 0 C4.89365265 3.9045101 7.49732525 8.8704443 8.484375 15.015625 C9.29549071 24.89215164 8.71400328 31.90828509 3.4140625 40.37109375 C1.20559187 42.9151055 -0.90101781 43.85101826 -4.21875 44.30078125 C-4.9715625 44.30464844 -5.724375 44.30851562 -6.5 44.3125 C-7.2528125 44.32925781 -8.005625 44.34601563 -8.78125 44.36328125 C-11 44 -11 44 -15 41 C-15.33 46.94 -15.66 52.88 -16 59 C-19.3 59 -22.6 59 -26 59 C-26 39.53 -26 20.06 -26 0 C-23.03 0 -20.06 0 -17 0 C-16.67 0.99 -16.34 1.98 -16 3 C-15.030625 2.319375 -14.06125 1.63875 -13.0625 0.9375 C-8.63235202 -1.55557923 -4.77258393 -1.79622704 0 0 Z M-13.25 11.3125 C-16.13329866 15.74042294 -16.54968877 19.82534361 -16 25 C-14.94604543 28.51774449 -13.62957179 31.37042821 -11 34 C-8.10380178 34.37130746 -6.62111229 34.46583421 -4.25 32.6875 C-1.68361071 29.22287446 -1.80715154 25.78753715 -1.75 21.625 C-1.72421875 20.50351562 -1.6984375 19.38203125 -1.671875 18.2265625 C-2.06145052 14.39573653 -3.25809233 11.74190767 -6 9 C-9.6627134 8.40604648 -10.60715748 8.59624518 -13.25 11.3125 Z " fill="#FFFFFF" transform="translate(260,388)"/>
<path d="M0 0 C11.22 0 22.44 0 34 0 C34 3.63 34 7.26 34 11 C26.41 11 18.82 11 11 11 C11 15.29 11 19.58 11 24 C17.6 24 24.2 24 31 24 C31 27.63 31 31.26 31 35 C24.4 35 17.8 35 11 35 C11 42.92 11 50.84 11 59 C7.37 59 3.74 59 0 59 C0 39.53 0 20.06 0 0 Z " fill="#FFFFFF" transform="translate(626,372)"/>
<path d="M0 0 C3.63 0.33 7.26 0.66 11 1 C11.32613281 2.05058594 11.65226562 3.10117187 11.98828125 4.18359375 C12.42964033 5.60157718 12.87104928 7.0195451 13.3125 8.4375 C13.52583984 9.12521484 13.73917969 9.81292969 13.95898438 10.52148438 C15.57467422 15.70616075 17.28186247 20.8455874 19 26 C21.31 17.75 23.62 9.5 26 1 C29.63 1 33.26 1 37 1 C27.19548147 35.88313864 27.19548147 35.88313864 23.625 46.875 C23.41149902 47.55481934 23.19799805 48.23463867 22.97802734 48.93505859 C21.45014575 53.49488605 19.45754029 57.77122986 15 60 C12.95944995 60.07065617 10.91665743 60.08421976 8.875 60.0625 C7.77929688 60.05347656 6.68359375 60.04445313 5.5546875 60.03515625 C4.71164062 60.02355469 3.86859375 60.01195312 3 60 C3 56.7 3 53.4 3 50 C5.64 49.67 8.28 49.34 11 49 C12.07798691 42.34886173 11.84311134 37.74115304 9.7265625 31.38671875 C9.48336273 30.60988235 9.24016296 29.83304596 8.98959351 29.03266907 C8.2175572 26.57879907 7.42201112 24.13335807 6.625 21.6875 C6.09733819 20.02850923 5.57128192 18.36900689 5.046875 16.70898438 C4.08769455 13.67462779 3.11753435 10.6441807 2.13916016 7.6159668 C1.34683132 5.10092557 0.63954108 2.5581643 0 0 Z " fill="#FFFFFF" transform="translate(470,463)"/>
<path d="M0 0 C5.91063805 3.89564781 7.44559495 8.29517499 9.234375 14.8984375 C9.75 17.8125 9.75 17.8125 9.75 24.8125 C2.16 24.8125 -5.43 24.8125 -13.25 24.8125 C-11.13890671 31.51641549 -11.13890671 31.51641549 -8.0625 33.25 C-7.1653125 33.5284375 -7.1653125 33.5284375 -6.25 33.8125 C-5.610625 32.966875 -4.97125 32.12125 -4.3125 31.25 C-1.25 28.8125 -1.25 28.8125 1.0859375 28.703125 C3.34044562 28.97338149 5.5329223 29.3246463 7.75 29.8125 C8.34765625 31.625 8.34765625 31.625 8.75 33.8125 C6.2738595 38.56668975 3.60292371 41.51839061 -1.25 43.8125 C-6.47141674 44.57509142 -10.77762877 44.46688721 -15.625 42.3125 C-20.72264676 37.45759832 -23.92110339 32.18302991 -24.453125 25.11328125 C-24.58057407 16.98840318 -23.93139877 9.99457568 -18.875 3.375 C-13.41960189 -1.95050768 -7.03049616 -2.56883514 0 0 Z M-11 10 C-13.66646337 12.73278631 -13.66646337 12.73278631 -13.25 16.8125 C-9.29 16.8125 -5.33 16.8125 -1.25 16.8125 C-1.89644661 11.93035113 -1.89644661 11.93035113 -4.25 8.8125 C-7.46912849 7.03642911 -8.08234476 7.67913788 -11 10 Z " fill="#FFFFFF" transform="translate(443.25,388.1875)"/>
<path d="M0 0 C3.54847252 4.34275154 4.50590122 7.37547165 4.57421875 12.9375 C4.60193359 14.24460937 4.62964844 15.55171875 4.65820312 16.8984375 C4.66882804 18.26561859 4.67858634 19.63280668 4.6875 21 C4.72605001 23.68766841 4.77518618 26.3749852 4.82421875 29.0625 C4.83541748 30.24972656 4.84661621 31.43695313 4.8581543 32.66015625 C4.9938516 35.85523225 5.40203059 38.8617801 6 42 C4.37536158 42.05395478 2.75021459 42.09277195 1.125 42.125 C-0.23238281 42.15980469 -0.23238281 42.15980469 -1.6171875 42.1953125 C-4 42 -4 42 -6 40 C-6.639375 40.495 -7.27875 40.99 -7.9375 41.5 C-12.04805849 43.51333477 -15.50059232 43.86983277 -20 43 C-23.06765423 41.27803193 -25.40321354 39.19357293 -27 36 C-27.40527925 31.16003055 -27.59232881 26.5795435 -25.875 22 C-20.97757185 16.77607664 -13.7038355 15.68192314 -7 14 C-6.67 12.35 -6.34 10.7 -6 9 C-8.97 9 -11.94 9 -15 9 C-15.33 10.32 -15.66 11.64 -16 13 C-18.97 12.67 -21.94 12.34 -25 12 C-26 8 -26 8 -24.3125 4.9375 C-18.02530339 -3.04893893 -9.15848289 -3.87474276 0 0 Z M-15 26 C-16.69701027 27.80522278 -16.69701027 27.80522278 -17 30 C-16.5 32.25 -16.5 32.25 -15 34 C-13.21328929 35.17612195 -13.21328929 35.17612195 -11 35 C-8.14554685 33.66827877 -8.14554685 33.66827877 -6 31 C-5.28155155 28.26677221 -5.14251205 25.85024101 -5 23 C-8.95875396 23 -11.49009536 24.21313946 -15 26 Z " fill="#FFFFFF" transform="translate(300,389)"/>
<path d="M0 0 C5.09458908 2.18339532 6.99555631 5.1549571 9.23828125 10 C11.43674367 15.77237313 11 19.2696605 11 26 C3.41 26 -4.18 26 -12 26 C-11.01 28.31 -10.02 30.62 -9 33 C-6.14287749 33.87462934 -3.95122196 34 -1 34 C-0.67 32.35 -0.34 30.7 0 29 C3.3 29.66 6.6 30.32 10 31 C8.86649551 36.66752246 8.86649551 36.66752246 6.125 39.75 C5.61195313 40.34296875 5.09890625 40.9359375 4.5703125 41.546875 C0.97831716 44.87081098 -3.74371498 44.2693433 -8.33984375 44.21484375 C-12.91427062 43.84539665 -14.9815573 42.0184427 -18.125 38.875 C-22.89343204 31.56340421 -24.10102443 23.97305751 -22.53125 15.45703125 C-21.01161871 9.47800574 -18.57769908 5.16965905 -14 1 C-9.80895066 -1.09552467 -4.56413839 -0.41220622 0 0 Z M-9.6875 11.25 C-12.42906662 13.91139629 -12.42906662 13.91139629 -12 18 C-8.04 18 -4.08 18 0 18 C-0.43344634 13.78981634 -0.43344634 13.78981634 -2.375 10.125 C-5.55148425 7.92589552 -6.89377921 8.91107096 -9.6875 11.25 Z " fill="#FFFFFF" transform="translate(378,463)"/>
<path d="M0 0 C4.70831631 3.82061157 7.64918009 7.6322748 8.67578125 13.65234375 C9.51203227 21.90899937 9.08122085 29.43977953 4.67578125 36.65234375 C1.71200976 39.92610155 -1.45194035 42.48137222 -5.93359375 42.890625 C-16.47303218 43.13969133 -16.47303218 43.13969133 -21.32421875 38.65234375 C-27.53120111 31.92811286 -27.85775679 25.28271162 -27.6328125 16.546875 C-27.08406129 9.62149576 -24.86855255 5.84695242 -19.82421875 1.21484375 C-14.20338584 -3.47344188 -6.30651558 -3.65671912 0 0 Z M-14.69921875 9.40234375 C-18.07836605 14.08116309 -17.79013873 19.10444472 -17.32421875 24.65234375 C-15.99844969 28.77695861 -15.22035534 30.14583176 -11.44921875 32.27734375 C-8.26637341 32.96573873 -8.26637341 32.96573873 -5.57421875 31.15234375 C-2.50920296 27.74677066 -1.31994809 25.069539 -1.328125 20.44140625 C-1.67798002 15.96028455 -2.15223443 12.03579369 -5.32421875 8.65234375 C-9.32893056 7.41452374 -11.24270902 6.85544184 -14.69921875 9.40234375 Z " fill="#FFFFFF" transform="translate(568.32421875,389.34765625)"/>
<path d="M0 0 C4.27536604 2.7882822 6.95033097 5.98163008 9.1875 10.5625 C9.875 13.875 9.875 13.875 9.875 24.875 C2.615 25.205 -4.645 25.535 -12.125 25.875 C-10.03317019 32.51613242 -10.03317019 32.51613242 -7.25 34.125 C-4.80996758 34.07868623 -4.80996758 34.07868623 -2.9375 31.375 C-0.125 28.875 -0.125 28.875 2.16015625 28.69140625 C4.49607463 28.92462789 6.63264303 29.17542169 8.875 29.875 C9.875 31.875 9.875 31.875 9.34375 33.6796875 C7.28359651 38.08243489 5.38573705 41.09964337 0.93359375 43.25390625 C-4.35281116 44.84885574 -9.34157188 44.50250249 -14.5 42.6875 C-19.46665756 39.25814121 -21.54461034 35.61573168 -23.125 29.875 C-23.89041544 21.28632673 -24.39458765 12.17507097 -19.125 4.875 C-13.71117261 -0.96288698 -7.62636174 -2.74549023 0 0 Z M-7.125 7.875 C-11.43708438 10.86028919 -12.03310185 11.41550926 -13.125 16.875 C-8.835 16.875 -4.545 16.875 -0.125 16.875 C-1.43726799 10.97762371 -1.43726799 10.97762371 -4.75 9 C-5.53375 8.62875 -6.3175 8.2575 -7.125 7.875 Z " fill="#FFFFFF" transform="translate(217.125,388.125)"/>
<path d="M0 0 C5.46986291 2.48630132 7.44437245 5.79409203 10 11 C11.63356321 15.90068963 11.05529694 20.85738476 11 26 C3.74 26 -3.52 26 -11 26 C-9.46687233 30.31608796 -9.46687233 30.31608796 -7 34 C-4.58517587 34.50059916 -4.58517587 34.50059916 -2 34 C-0.1375562 31.59141286 -0.1375562 31.59141286 1 29 C4.3 29.66 7.6 30.32 11 31 C9.59154694 36.04695678 7.80806117 40.22321793 3.234375 43.1171875 C-1.30630838 44.91123373 -6.2145591 44.50676921 -11 44 C-16.48470023 41.55147311 -18.44555324 38.20350266 -21 33 C-23.19800547 26.4059836 -23.08123153 16.97593277 -20.75 10.375 C-15.78044503 0.79085827 -10.49925471 -1.20383327 0 0 Z M-7 9 C-10.1782099 12.2690159 -11 13.32165993 -11 18 C-7.04 18 -3.08 18 1 18 C0.64874795 13.5910231 0.64874795 13.5910231 -1.875 10.125 C-4.04115679 8.76605614 -4.04115679 8.76605614 -7 9 Z " fill="#FFFFFF" transform="translate(754,463)"/>
<path d="M0 0 C5.75367499 2.46586071 7.77053235 6.43204745 10 12 C11 15 11 15 11 26 C3.74 26.33 -3.52 26.66 -11 27 C-8.85622587 33.04236506 -8.85622587 33.04236506 -5.4375 33.875 C-3.95968853 33.9507852 -2.4797534 34 -1 34 C-0.67 32.35 -0.34 30.7 0 29 C3.3 29.66 6.6 30.32 10 31 C9.72387317 34.95781786 9.25946652 36.69956508 6.625 39.75 C1.52295764 44.12317917 -1.49626178 44.4390046 -8.05078125 44.3125 C-12.04077134 43.88971959 -14.10006251 42.75494061 -17 40 C-21.46522397 34.08659529 -22.22454459 29.5658892 -22.3125 22.3125 C-22.34150391 21.53455078 -22.37050781 20.75660156 -22.40039062 19.95507812 C-22.48016305 12.59760584 -20.1749964 7.60999568 -15.5 2 C-11.00948193 -1.37934396 -5.29794238 -0.7641263 0 0 Z M-9.75 10.6875 C-11.31818945 13.31799517 -11.31818945 13.31799517 -12 18 C-7.71 18 -3.42 18 1 18 C-0.12697043 13.03088634 -0.12697043 13.03088634 -3 9 C-6.14554514 8.51606998 -7.41610982 8.43696304 -9.75 10.6875 Z " fill="#FFFFFF" transform="translate(596,463)"/>
<path d="M0 0 C5.46700501 2.48500228 7.47968196 5.7726737 10 11 C11 15 11 15 11 26 C3.74 26 -3.52 26 -11 26 C-9.46687233 30.31608796 -9.46687233 30.31608796 -7 34 C-4.58517587 34.50059916 -4.58517587 34.50059916 -2 34 C-0.1375562 31.59141286 -0.1375562 31.59141286 1 29 C4.3 29.66 7.6 30.32 11 31 C9.59154694 36.04695678 7.80806117 40.22321793 3.234375 43.1171875 C-1.30375376 44.91022439 -6.21729487 44.51289063 -11 44 C-15.94586526 41.70370541 -18.30760518 38.68676135 -21 34 C-23.56515167 26.30454498 -23.31931135 15.56185892 -19.875 8.1875 C-14.98402864 0.21249947 -8.96045465 -1.29532653 0 0 Z M-9.125 10.6875 C-11.43791833 13.17356336 -11.43791833 13.17356336 -12 18 C-7.71 18 -3.42 18 1 18 C0.00830104 13.04150521 -0.26234758 11.96813574 -4 9 C-7.06070069 8.68905893 -7.06070069 8.68905893 -9.125 10.6875 Z " fill="#FFFFFF" transform="translate(272,463)"/>
<path d="M0 0 C4.87092464 3.10271227 6.49640106 8.23920319 8.25 13.5 C8.25 17.13 8.25 20.76 8.25 24.5 C0.99 24.83 -6.27 25.16 -13.75 25.5 C-11.7222494 32.25143602 -11.7222494 32.25143602 -8.75 33.5625 C-6.42685348 33.66622058 -6.42685348 33.66622058 -3.75 31.5 C-3.42 30.51 -3.09 29.52 -2.75 28.5 C0.22 28.83 3.19 29.16 6.25 29.5 C7.25 33.5 7.25 33.5 5.5625 36.5625 C2.6969887 40.20247381 0.63146038 42.03951321 -3.75 43.5 C-9.93997747 44.02457436 -14.80503411 43.52766944 -19.75 39.5 C-25.15335092 33.03691198 -25.58568563 25.37294279 -25.16796875 17.2890625 C-24.44359926 10.7223484 -22.68059315 5.92031937 -17.6875 1.5 C-12.210153 -2.22925753 -5.99619352 -2.93348261 0 0 Z M-10.9375 8.0625 C-13.04055352 9.730439 -13.83640974 10.98762678 -14.75 13.5 C-14.75 14.49 -14.75 15.48 -14.75 16.5 C-10.46 16.5 -6.17 16.5 -1.75 16.5 C-3.10735728 10.68804527 -3.10735728 10.68804527 -6.125 8.5 C-8.64836204 7.24939392 -8.64836204 7.24939392 -10.9375 8.0625 Z " fill="#FFFFFF" transform="translate(735.75,388.5)"/>
<path d="M0 0 C3.5225219 2.71527729 5.28659623 4.65468093 6 9 C6.08316178 11.61897019 6.11634452 14.21001753 6.09765625 16.828125 C6.0962413 17.57713074 6.09482635 18.32613647 6.09336853 19.09783936 C6.08778659 21.48193412 6.07523745 23.86593378 6.0625 26.25 C6.05748266 27.86979031 6.05292016 29.48958209 6.04882812 31.109375 C6.03782308 35.07295312 6.02057091 39.03646045 6 43 C2.37 43 -1.26 43 -5 43 C-5.01981934 42.0713916 -5.03963867 41.1427832 -5.06005859 40.18603516 C-5.13808613 36.7454948 -5.22477462 33.30540109 -5.31738281 29.86523438 C-5.35569998 28.37541111 -5.39054808 26.88549446 -5.421875 25.39550781 C-5.46746729 23.25551952 -5.52546874 21.11617564 -5.5859375 18.9765625 C-5.63306885 17.04417725 -5.63306885 17.04417725 -5.68115234 15.07275391 C-5.68458268 11.89518495 -5.68458268 11.89518495 -8 10 C-10.53951544 10.09111938 -10.53951544 10.09111938 -13 11 C-15.42170679 14.63256018 -15.3044503 16.52578695 -15.4140625 20.85546875 C-15.43342865 21.51710526 -15.4527948 22.17874176 -15.4727478 22.86042786 C-15.53242687 24.96932164 -15.57888087 27.07827037 -15.625 29.1875 C-15.66319066 30.61916415 -15.70224303 32.05080559 -15.7421875 33.48242188 C-15.83811773 36.98807312 -15.92219197 40.49389445 -16 44 C-19.3 44 -22.6 44 -26 44 C-26 29.81 -26 15.62 -26 1 C-23.03 1 -20.06 1 -17 1 C-16.67 1.99 -16.34 2.98 -16 4 C-15.401875 3.360625 -14.80375 2.72125 -14.1875 2.0625 C-9.96594038 -1.91782764 -5.31721101 -1.37128074 0 0 Z " fill="#FFFFFF" transform="translate(423,463)"/>
<path d="M0 0 C2.36515939 2.06951447 3.57351442 3.22274614 4.5 6.1875 C4.5 7.5075 4.5 8.8275 4.5 10.1875 C0.045 10.6825 0.045 10.6825 -4.5 11.1875 C-4.83 10.1975 -5.16 9.2075 -5.5 8.1875 C-10.55009595 7.24963918 -10.55009595 7.24963918 -15.5 8.1875 C-15.17 9.1775 -14.84 10.1675 -14.5 11.1875 C-11.91343802 12.29868513 -11.91343802 12.29868513 -8.8125 13.125 C-2.63408194 15.0497866 1.80568255 16.64602383 5.5 22.1875 C6.20522927 27.41111682 6.10457319 31.88534237 3.875 36.6875 C-0.70515488 41.50871566 -4.47165788 42.39476268 -11 42.625 C-16.31710675 42.48587206 -19.56058625 42.02590314 -23.5 38.1875 C-26.46788373 34.43859423 -27.5 33.02980383 -27.5 28.1875 C-24.14617772 27.54105716 -20.92086924 27.03570232 -17.5 27.1875 C-15.3125 29.625 -15.3125 29.625 -13.5 32.1875 C-9.83200185 32.60521804 -9.83200185 32.60521804 -6.5 32.1875 C-6.17 30.8675 -5.84 29.5475 -5.5 28.1875 C-6.31791016 27.94966797 -6.31791016 27.94966797 -7.15234375 27.70703125 C-21.41015941 23.29563871 -21.41015941 23.29563871 -24.7265625 18.36328125 C-26.40555448 13.64005632 -26.67294353 7.84233201 -24.625 3.20703125 C-18.74717262 -4.62362693 -7.92545288 -4.10425238 0 0 Z " fill="#FFFFFF" transform="translate(796.5,464.8125)"/>
<path d="M0 0 C2.64233769 2.19257809 4.46669809 3.93339618 6 7 C6.08675538 9.69893181 6.11557897 12.37169231 6.09765625 15.0703125 C6.0962413 15.86654022 6.09482635 16.66276794 6.09336853 17.48312378 C6.08776345 20.0304538 6.07521014 22.57769647 6.0625 25.125 C6.05748565 26.85025915 6.05292263 28.57551967 6.04882812 30.30078125 C6.03779237 34.53388791 6.02052436 38.76692914 6 43 C2.7 43 -0.6 43 -4 43 C-4.01981934 42.0713916 -4.03963867 41.1427832 -4.06005859 40.18603516 C-4.13808613 36.7454948 -4.22477462 33.30540109 -4.31738281 29.86523438 C-4.35569998 28.37541111 -4.39054808 26.88549446 -4.421875 25.39550781 C-4.46746729 23.25551952 -4.52546874 21.11617564 -4.5859375 18.9765625 C-4.63306885 17.04417725 -4.63306885 17.04417725 -4.68115234 15.07275391 C-4.68458268 11.89518495 -4.68458268 11.89518495 -7 10 C-10.29714793 10.32971479 -11.6226839 10.6226839 -14 13 C-15.00265925 16.70931342 -15.18439057 20.34732661 -15.31640625 24.17578125 C-15.35830078 25.33271484 -15.40019531 26.48964844 -15.44335938 27.68164062 C-15.48267578 28.87982422 -15.52199219 30.07800781 -15.5625 31.3125 C-15.60568359 32.53001953 -15.64886719 33.74753906 -15.69335938 35.00195312 C-15.79921496 38.0011947 -15.90129726 41.00051591 -16 44 C-19.3 44 -22.6 44 -26 44 C-26 29.81 -26 15.62 -26 1 C-23.03 1 -20.06 1 -17 1 C-16.67 1.99 -16.34 2.98 -16 4 C-15.236875 3.360625 -14.47375 2.72125 -13.6875 2.0625 C-9.25050005 -1.34263949 -5.28512496 -1.53505579 0 0 Z " fill="#FFFFFF" transform="translate(486,388)"/>
<path d="M0 0 C4.88125688 2.30750325 7.43963359 5.2731697 10 10 C10 11.32 10 12.64 10 14 C6.7 14.66 3.4 15.32 0 16 C-0.4125 15.195625 -0.825 14.39125 -1.25 13.5625 C-2.75423334 10.9445445 -2.75423334 10.9445445 -4.9375 9.9375 C-7.19813339 9.79930433 -7.19813339 9.79930433 -9.1875 11.75 C-12.65085282 16.04933454 -12.52434338 20.71287093 -12 26 C-11.21009829 28.52125603 -10.20808718 30.63416261 -9 33 C-7.02 33 -5.04 33 -3 33 C-2.01 31.02 -1.02 29.04 0 27 C3.3 27.33 6.6 27.66 10 28 C9.56516436 33.43544554 8.46772 36.76167555 5 41 C-0.41867149 44.92643838 -5.5313112 44.7636037 -12 44 C-17.09458908 41.81660468 -18.99555631 38.8450429 -21.23828125 34 C-24.10814693 26.46476294 -24.41286151 17.40433384 -21.25 9.9375 C-16.46833 0.74457106 -9.91554488 -1.15129694 0 0 Z " fill="#FFFFFF" transform="translate(458,463)"/>
<path d="M0 0 C3.18868277 3.11091002 5.02875381 6.33181918 6.5625 10.5 C6.5625 11.16 6.5625 11.82 6.5625 12.5 C2.9325 13.16 -0.6975 13.82 -4.4375 14.5 C-5.0975 12.85 -5.7575 11.2 -6.4375 9.5 C-9.36666561 8.17715102 -10.31572605 8.45940868 -13.4375 9.5 C-15.77069272 12.81641105 -15.7362371 15.96919687 -15.75 19.9375 C-15.76675781 21.04996094 -15.78351562 22.16242188 -15.80078125 23.30859375 C-15.39917749 26.83666122 -14.64218419 28.73132684 -12.4375 31.5 C-9.31114791 31.91746608 -9.31114791 31.91746608 -6.4375 31.5 C-5.4475 29.52 -4.4575 27.54 -3.4375 25.5 C-0.1375 25.83 3.1625 26.16 6.5625 26.5 C6.07964414 31.44927256 4.73598269 35.64515191 1.5625 39.5 C-3.98209037 43.65118546 -9.78264028 43.36328785 -16.4375 42.5 C-20.56030642 40.865094 -22.71043113 37.45822148 -24.8125 33.6875 C-27.9541326 25.80701823 -27.93748284 15.10812097 -24.75 7.25 C-19.75583995 -2.02992861 -9.30673685 -4.06112153 0 0 Z " fill="#FFFFFF" transform="translate(722.4375,464.5)"/>
<path d="M0 0 C1.06347656 -0.00515625 2.12695312 -0.0103125 3.22265625 -0.015625 C5.9375 0.25 5.9375 0.25 7.9375 2.25 C7.5625 5.875 7.5625 5.875 6.9375 9.25 C4.00925348 10.22608217 1.98136724 10.33226668 -1.0625 10.25 C-1.0625 12.23 -1.0625 14.21 -1.0625 16.25 C0.9175 16.25 2.8975 16.25 4.9375 16.25 C4.9375 19.55 4.9375 22.85 4.9375 26.25 C2.9575 26.25 0.9775 26.25 -1.0625 26.25 C-1.0625 37.47 -1.0625 48.69 -1.0625 60.25 C-4.6925 60.25 -8.3225 60.25 -12.0625 60.25 C-12.0625 49.03 -12.0625 37.81 -12.0625 26.25 C-13.7125 26.25 -15.3625 26.25 -17.0625 26.25 C-17.0625 22.95 -17.0625 19.65 -17.0625 16.25 C-15.4125 16.25 -13.7625 16.25 -12.0625 16.25 C-12.124375 15.239375 -12.18625 14.22875 -12.25 13.1875 C-12.03199836 8.60946558 -11.18972417 6.26809011 -9.0625 2.25 C-5.58864567 -0.06590289 -4.09819994 -0.01991835 0 0 Z " fill="#FFFFFF" transform="translate(597.0625,371.75)"/>
<path d="M0 0 C0 4.95 0 9.9 0 15 C1.98 14.67 3.96 14.34 6 14 C6 17.3 6 20.6 6 24 C3.69 24 1.38 24 -1 24 C-0.67 31.59 -0.34 39.18 0 47 C1.65 47 3.3 47 5 47 C6.1577506 50.47325181 6.06866652 53.36067448 6 57 C2.30568392 58.84715804 -1.96714833 58.47560286 -6 58 C-8.57420748 56.24200465 -9.60443038 55.16585539 -10.59741211 52.23925781 C-11.10706536 49.40448548 -11.00586453 46.79959596 -10.87890625 43.921875 C-10.83056641 42.76171875 -10.78222656 41.6015625 -10.73242188 40.40625 C-10.67634766 39.1996875 -10.62027344 37.993125 -10.5625 36.75 C-10.51029297 35.52796875 -10.45808594 34.3059375 -10.40429688 33.046875 C-10.27470786 30.03098519 -10.13974424 27.01543354 -10 24 C-11.65 24 -13.3 24 -15 24 C-15 21.03 -15 18.06 -15 15 C-13.35 15 -11.7 15 -10 15 C-10.0928125 14.41992188 -10.185625 13.83984375 -10.28125 13.2421875 C-10.5224541 10.63201453 -10.55979279 8.56919826 -10 6 C-7.41519712 3.07881867 -4.05786805 0 0 0 Z " fill="#FFFFFF" transform="translate(512,374)"/>
<path d="M0 0 C3.3 0 6.6 0 10 0 C10.33 0.66 10.66 1.32 11 2 C11.66 1.34 12.32 0.68 13 0 C14.875 -0.23046875 14.875 -0.23046875 17 -0.1875 C18.051875 -0.17783203 18.051875 -0.17783203 19.125 -0.16796875 C21 0 21 0 23 1 C22.125 8.625 22.125 8.625 21 12 C18.36 11.67 15.72 11.34 13 11 C11.94044752 14.51424524 11.80001859 17.85655874 11.68359375 21.515625 C11.64169922 22.76601563 11.59980469 24.01640625 11.55664062 25.3046875 C11.51732422 26.60664063 11.47800781 27.90859375 11.4375 29.25 C11.39431641 30.56742187 11.35113281 31.88484375 11.30664062 33.2421875 C11.20058083 36.49468788 11.09851976 39.74726392 11 43 C7.37 43 3.74 43 0 43 C0 28.81 0 14.62 0 0 Z " fill="#FFFFFF" transform="translate(686,388)"/>
<path d="M0 0 C0.66 0.33 1.32 0.66 2 1 C1.125 8.625 1.125 8.625 0 12 C-1.11375 11.95875 -2.2275 11.9175 -3.375 11.875 C-7.04366025 11.58878141 -7.04366025 11.58878141 -9 14 C-9.8638479 17.93975971 -10.16498675 21.81250506 -10.31640625 25.8359375 C-10.35830078 26.89941406 -10.40019531 27.96289062 -10.44335938 29.05859375 C-10.48267578 30.15300781 -10.52199219 31.24742187 -10.5625 32.375 C-10.60568359 33.49261719 -10.64886719 34.61023438 -10.69335938 35.76171875 C-10.79897411 38.50770199 -10.9010797 41.25376881 -11 44 C-14.3 43.67 -17.6 43.34 -21 43 C-21 29.14 -21 15.28 -21 1 C-18.03 1 -15.06 1 -12 1 C-11.67 1.66 -11.34 2.32 -11 3 C-10.67 2.505 -10.34 2.01 -10 1.5 C-6.78331686 -0.91251235 -3.95594889 -0.25117136 0 0 Z " fill="#FFFFFF" transform="translate(311,463)"/>
<path d="M0 0 C3.63 0 7.26 0 11 0 C11 14.19 11 28.38 11 43 C7.37 43 3.74 43 0 43 C0 28.81 0 14.62 0 0 Z " fill="#FFFFFF" transform="translate(667,388)"/>
<path d="M0 0 C3.3 0 6.6 0 10 0 C10 13.86 10 27.72 10 42 C6.7 42 3.4 42 0 42 C0 28.14 0 14.28 0 0 Z " fill="#FFFFFF" transform="translate(678,464)"/>
<path d="M0 0 C3.63 0 7.26 0 11 0 C11 3.96 11 7.92 11 12 C7.37 12 3.74 12 0 12 C0 8.04 0 4.08 0 0 Z " fill="#FFFFFF" transform="translate(667,372)"/>
<path d="M0 0 C3.3 0 6.6 0 10 0 C10 3.3 10 6.6 10 10 C6.7 10 3.4 10 0 10 C0 6.7 0 3.4 0 0 Z " fill="#FFFFFF" transform="translate(678,448)"/>
</svg>
