<?xml version="1.0" encoding="UTF-8"?>
<svg version="1.1" xmlns="http://www.w3.org/2000/svg" width="265" height="254">
<path d="M0 0 C0.66 0 1.32 0 2 0 C2.495 0.99 2.495 0.99 3 2 C4.32 2 5.64 2 7 2 C7.66 2 8.32 2 9 2 C9.103125 2.598125 9.20625 3.19625 9.3125 3.8125 C10.09423531 6.29983964 11.1264074 7.24696028 13 9 C12.41992188 9.02578125 11.83984375 9.0515625 11.2421875 9.078125 C5.78405202 9.47442527 2.28570111 10.32654191 -2 14 C-5.20219742 17.94937682 -5.29402058 21.00165008 -5 26 C-4.67 24.68 -4.34 23.36 -4 22 C-3.01 22 -2.02 22 -1 22 C-0.505 20.515 -0.505 20.515 0 19 C7.10480445 16.97629546 11.29295907 16.770684 18 20 C18 19.34 18 18.68 18 18 C18 15.66666667 18 13.33333333 18 11 C20.73905345 9.63047327 22.97087332 9.87378639 26 10 C26.99 10.495 26.99 10.495 28 11 C28 13.97 28 16.94 28 20 C29.32 20 30.64 20 32 20 C32 19.34 32 18.68 32 18 C38.13909603 16.56319029 42.20377279 17.67362309 48 20 C48 20.66 48 21.32 48 22 C48.99 22.33 49.98 22.66 51 23 C51.33 23.99 51.66 24.98 52 26 C52.31986304 22.00171201 52.22229924 19.47238587 50.5 15.8125 C46.55113395 11.37002569 42.4465442 9.17475316 36.5 8.75 C35.675 8.8325 34.85 8.915 34 9 C34 8.34 34 7.68 34 7 C34.99 6.34 35.98 5.68 37 5 C37.33 4.01 37.66 3.02 38 2 C39.65614657 1.61781233 41.32457024 1.28604898 43 1 C43.33 1.33 43.66 1.66 44 2 C44.33 1.34 44.66 0.68 45 0 C45.66 0 46.32 0 47 0 C47.33 0.66 47.66 1.32 48 2 C49.32 1.67 50.64 1.34 52 1 C52 1.99 52 2.98 52 4 C53.65 3.67 55.3 3.34 57 3 C56.67 3.99 56.34 4.98 56 6 C56.33 5.67 56.66 5.34 57 5 C58.66617115 4.95936168 60.33388095 4.957279 62 5 C62 7 62 7 60 9.125 C59.34 9.74375 58.68 10.3625 58 11 C58.33 11.33 58.66 11.66 59 12 C59.66 11.34 60.32 10.68 61 10 C63.625 9.875 63.625 9.875 66 10 C66 10.66 66 11.32 66 12 C65.01 12 64.02 12 63 12 C62.71125 12.7425 62.4225 13.485 62.125 14.25 C61.17697356 16.56739797 60.15154089 18.77917115 59 21 C59.598125 20.773125 60.19625 20.54625 60.8125 20.3125 C61.534375 20.209375 62.25625 20.10625 63 20 C64.75 21.3125 64.75 21.3125 66 23 C66 23.66 66 24.32 66 25 C66.66 25 67.32 25 68 25 C67.73958333 26.98567708 67.47916667 28.97135417 67.21875 30.95703125 C66.946767 33.15471706 66.946767 33.15471706 67 36 C67.66 36.33 68.32 36.66 69 37 C68.34 40.63 67.68 44.26 67 48 C66.01 48 65.02 48 64 48 C66.36425627 51.5463844 68.11770331 52.22205827 71.9375 54 C78.48409091 57.05454545 78.48409091 57.05454545 81 60 C83.40072955 57.11912454 85.47291037 54.43595166 87 51 C84.03 50.01 84.03 50.01 81 49 C80.8125 46.6875 80.8125 46.6875 81 44 C82.375 42.4375 82.375 42.4375 84 41 C85.17574711 38.90010348 85.17574711 38.90010348 86 37 C86.66 37 87.32 37 88 37 C87.91621094 36.30132812 87.83242187 35.60265625 87.74609375 34.8828125 C87.59333984 33.51769531 87.59333984 33.51769531 87.4375 32.125 C87.33308594 31.22007813 87.22867188 30.31515625 87.12109375 29.3828125 C87 27 87 27 88 25 C91 26 91 26 92.6875 29.0625 C93.120625 30.031875 93.55375 31.00125 94 32 C95.32 30.02 96.64 28.04 98 26 C99.32 26.33 100.64 26.66 102 27 C102.02689216 28.47906892 102.04634621 29.95827483 102.0625 31.4375 C102.07410156 32.26121094 102.08570313 33.08492187 102.09765625 33.93359375 C102 36 102 36 101 37 C100.45629598 40.35298283 100.19674937 43.74436578 99.875 47.125 C99.77574219 48.0634375 99.67648438 49.001875 99.57421875 49.96875 C99.06496123 55.23845825 99.18429698 59.74962985 100 65 C99.91293572 66.79454012 99.8197743 68.58878838 99.72265625 70.3828125 C99.65092566 78.75312018 102.63759868 86.10391572 105.4375 93.875 C106.21687453 96.08479866 106.99089888 98.2963358 107.76051331 100.509552 C108.23681423 101.87428205 108.71943965 103.236828 109.20957947 104.59664917 C111.66705458 111.53419231 112.11288932 117.54833439 111.80859375 124.80078125 C111.75035289 126.51756804 111.69241984 128.23436529 111.63476562 129.95117188 C111.53798782 132.63032453 111.43762916 135.309246 111.33129883 137.98803711 C111.23032409 140.592034 111.14367814 143.19622322 111.05859375 145.80078125 C111.02326035 146.58858475 110.98792694 147.37638824 110.95152283 148.18806458 C110.75723793 154.50464402 110.94681767 161.25952358 114.84375 166.4609375 C122.20838288 171.71757764 132.53643472 171.60924076 141.26953125 172.26611328 C142.11 172.33427246 142.95046875 172.40243164 143.81640625 172.47265625 C144.57381104 172.52687744 145.33121582 172.58109863 146.11157227 172.63696289 C148 173 148 173 150 175 C150 175.99 150 176.98 150 178 C137.46180799 180.28294558 124.95445095 181.13026207 112.24639893 181.86853027 C109.95422843 182.00267877 107.66243955 182.14245948 105.37060547 182.28222656 C53.12853575 185.39920926 0.51459827 185.05922764 -51.75 182.625 C-52.43896488 182.59332859 -53.12792976 182.56165718 -53.83777237 182.52902603 C-93.60094318 180.69184685 -93.60094318 180.69184685 -103 178 C-103 177.01 -103 176.02 -103 175 C-100.12273185 173.38617118 -97.86837561 172.70892158 -94.5859375 172.47265625 C-93.74667725 172.40449707 -92.90741699 172.33633789 -92.04272461 172.26611328 C-90.72220093 172.16532471 -90.72220093 172.16532471 -89.375 172.0625 C-77.31051983 171.6296833 -77.31051983 171.6296833 -67.31640625 166.0859375 C-65.30902864 162.9051077 -64.87937168 160.39199517 -64.93408203 156.71899414 C-64.94384064 155.8570192 -64.95359924 154.99504425 -64.96365356 154.10694885 C-64.97822601 153.17575729 -64.99279846 152.24456573 -65.0078125 151.28515625 C-65.02534999 149.29883342 -65.04225619 147.31250494 -65.05859375 145.32617188 C-65.08936187 142.2061378 -65.12464205 139.08639051 -65.17138672 135.96655273 C-65.48777069 113.67214756 -65.48777069 113.67214756 -62 104 C-61.67628418 103.08178467 -61.35256836 102.16356934 -61.01904297 101.2175293 C-60.3397292 99.34998173 -59.6474342 97.48710019 -58.94165039 95.62939453 C-55.37360534 86.20661957 -53.10705467 77.87538395 -53.03515625 67.7890625 C-53.00856989 64.92364379 -52.80704656 62.42612629 -52.40625 59.6171875 C-51.81566044 54.70696193 -52.51215186 50.32756094 -53.4375 45.5 C-54.61048098 39.22019789 -55.15997 33.39880008 -55 27 C-53.68 27 -52.36 27 -51 27 C-48.75 30 -48.75 30 -47 33 C-46.01 30.69 -45.02 28.38 -44 26 C-42.68 26.33 -41.36 26.66 -40 27 C-40.33 30.3 -40.66 33.6 -41 37 C-39.68 37.66 -38.36 38.32 -37 39 C-35.8125 41.0625 -35.8125 41.0625 -35 43 C-34.67 43.33 -34.34 43.66 -34 44 C-33.625 46.375 -33.625 46.375 -34 49 C-36.5 50.8125 -36.5 50.8125 -39 52 C-36.88673474 56.70842624 -36.88673474 56.70842624 -33 60 C-32.13375 59.236875 -31.2675 58.47375 -30.375 57.6875 C-27.09817864 54.9542272 -23.42051406 52 -19 52 C-18.67 50.68 -18.34 49.36 -18 48 C-18.66 48 -19.32 48 -20 48 C-22 40.375 -22 40.375 -22 37 C-21.01 36.34 -20.02 35.68 -19 35 C-19.33 34.278125 -19.66 33.55625 -20 32.8125 C-21.00603529 29.98302573 -21.16977402 27.97104534 -21 25 C-20.34 25 -19.68 25 -19 25 C-18.67 23.68 -18.34 22.36 -18 21 C-16.02 21 -14.04 21 -12 21 C-12.99 19.329375 -12.99 19.329375 -14 17.625 C-16 14.25 -16 14.25 -16 12 C-16.99 12 -17.98 12 -19 12 C-19 11.34 -19 10.68 -19 10 C-14.46770601 9.6325167 -14.46770601 9.6325167 -12.25 11.375 C-11 13 -11 13 -10 15 C-11.52555966 10.18877153 -11.52555966 10.18877153 -15 7 C-15 6.34 -15 5.68 -15 5 C-13.35 5 -11.7 5 -10 5 C-9.01 6.98 -9.01 6.98 -8 9 C-8.495 6.03 -8.495 6.03 -9 3 C-7.68 3.33 -6.36 3.66 -5 4 C-4.505 5.98 -4.505 5.98 -4 8 C-4.495 4.535 -4.495 4.535 -5 1 C-3.68 1.33 -2.36 1.66 -1 2 C-0.67 1.34 -0.34 0.68 0 0 Z M0 4 C1 6 1 6 1 6 Z M46 4 C47 6 47 6 47 6 Z M-1 6 C0 9 0 9 0 9 Z M47 6 C48 9 48 9 48 9 Z M54 13 C55 15 55 15 55 15 Z M56 17 C57 19 57 19 57 19 Z M23 19 C24 22 24 22 24 22 Z M4 23 C4 23.33 4 23.66 4 24 C6.31 24 8.62 24 11 24 C11 23.67 11 23.34 11 23 C8.69 23 6.38 23 4 23 Z M35 23 C35 23.33 35 23.66 35 24 C37.64 24 40.28 24 43 24 C43 23.67 43 23.34 43 23 C40.36 23 37.72 23 35 23 Z M1 25 C-0.20561184 25.98267859 -0.20561184 25.98267859 -0.09765625 27.84765625 C-0.08605469 28.57855469 -0.07445313 29.30945313 -0.0625 30.0625 C-0.041875 31.361875 -0.02125 32.66125 0 34 C0.33 34 0.66 34 1 34 C1.33 31.03 1.66 28.06 2 25 C1.67 25 1.34 25 1 25 Z M6 25 C5.67 25.66 5.34 26.32 5 27 C7.64 27.33 10.28 27.66 13 28 C12.67 27.34 12.34 26.68 12 26 C8.97065509 25.34227572 8.97065509 25.34227572 6 25 Z M35.25 25.875 C34.13625 26.431875 34.13625 26.431875 33 27 C36.32534757 28.10844919 38.62182575 27.84454356 42 27 C39.27098495 25.18065663 38.46400584 24.85236178 35.25 25.875 Z M46 27 C46 29.31 46 31.62 46 34 C46.33 34 46.66 34 47 34 C47 31.69 47 29.38 47 27 C46.67 27 46.34 27 46 27 Z M-18 28 C-18.33 28.66 -18.66 29.32 -19 30 C-18.01 29.67 -17.02 29.34 -16 29 C-16.66 28.67 -17.32 28.34 -18 28 Z M-13 28 C-13.66 29.65 -14.32 31.3 -15 33 C-13.35 32.67 -11.7 32.34 -10 32 C-10.99 30.68 -11.98 29.36 -13 28 Z M59 28 C58.34 29.65 57.68 31.3 57 33 C58.32 33 59.64 33 61 33 C60.67 31.35 60.34 29.7 60 28 C59.67 28 59.34 28 59 28 Z M89 29 C90 31 90 31 90 31 Z M99 30 C100 32 100 32 100 32 Z M34 34 C33.67 35.98 33.34 37.96 33 40 C33.66 40 34.32 40 35 40 C35 38.02 35 36.04 35 34 C34.67 34 34.34 34 34 34 Z M12 35 C12 36.65 12 38.3 12 40 C12.66 39.67 13.32 39.34 14 39 C13.34 37.68 12.68 36.36 12 35 Z M22 35 C22 35.66 22 36.32 22 37 C22.99 36.67 23.98 36.34 25 36 C24.01 35.67 23.02 35.34 22 35 Z M-12 36 C-12.33 38.97 -12.66 41.94 -13 45 C-13.66 45 -14.32 45 -15 45 C-15.33 46.65 -15.66 48.3 -16 50 C-11.545 49.505 -11.545 49.505 -7 49 C-7.33 50.65 -7.66 52.3 -8 54 C-8.78375 54.185625 -9.5675 54.37125 -10.375 54.5625 C-15.86178988 56.73829599 -22.01480439 60.02220659 -25.359375 65.0390625 C-26.27239563 67.1748113 -26.27239563 67.1748113 -25 70 C-22.41659649 68.85182066 -20.6932956 67.72475246 -18.5625 65.8125 C-16 64 -16 64 -13.3125 64.125 C-11 65 -11 65 -9 67 C-6.18081639 67.30060037 -6.18081639 67.30060037 -2.83789062 67.24291992 C-0.89577698 67.24753487 -0.89577698 67.24753487 1.08557129 67.25224304 C2.50496599 67.24534509 3.92435894 67.2380781 5.34375 67.23046875 C6.79341593 67.22927695 8.24308263 67.22882379 9.69274902 67.2290802 C12.73255235 67.22751488 15.77223799 67.21922169 18.81201172 67.20581055 C22.71287964 67.18882062 26.61361815 67.18499619 30.51451874 67.18575573 C33.50845582 67.18548408 36.50236448 67.18000375 39.49629211 67.17275429 C40.9348377 67.16956709 42.3733865 67.16760009 43.81193542 67.16686058 C45.82059889 67.1646976 47.82925038 67.15516126 49.83789062 67.14526367 C50.98213501 67.14145187 52.12637939 67.13764008 53.30529785 67.13371277 C55.97002333 67.18262857 55.97002333 67.18262857 58 66 C58 65.34 58 64.68 58 64 C61.375 63.8125 61.375 63.8125 65 64 C65.99 65.485 65.99 65.485 67 67 C67.66 67 68.32 67 69 67 C69 67.66 69 68.32 69 69 C70.485 69.495 70.485 69.495 72 70 C72.33 68.02 72.66 66.04 73 64 C68.69946624 60.45604162 64.60522693 57.11540128 59.5 54.8125 C56 53 56 53 55.28125 50.88671875 C55.1884375 50.26410156 55.095625 49.64148437 55 49 C57.31 49.33 59.62 49.66 62 50 C61.505 47.525 61.505 47.525 61 45 C60.34 45 59.68 45 59 45 C58.505 40.545 58.505 40.545 58 36 C51.63242681 40.34858657 48.60822636 46.30663334 45 53 C45.99 53.99 45.99 53.99 47 55 C47 56.98 47 58.96 47 61 C31.49 61 15.98 61 0 61 C-1 56 -1 56 -1 54 C-0.34 54 0.32 54 1 54 C-0.32002058 50.42705968 -1.89521388 47.36046508 -4 44.1875 C-4.515625 43.39730469 -5.03125 42.60710938 -5.5625 41.79296875 C-6.036875 41.20128906 -6.51125 40.60960937 -7 40 C-7.66 40 -8.32 40 -9 40 C-9.33 38.68 -9.66 37.36 -10 36 C-10.66 36 -11.32 36 -12 36 Z M2 38 C3 40 3 40 3 40 Z M20 38 C21 40 21 40 21 40 Z M26 38 C27 40 27 40 27 40 Z M-2 39 C-1.34 40.65 -0.68 42.3 0 44 C0.33 42.68 0.66 41.36 1 40 C0.01 39.67 -0.98 39.34 -2 39 Z M47 39 C46.67 40.32 46.34 41.64 46 43 C46.99 42.01 47.98 41.02 49 40 C48.34 39.67 47.68 39.34 47 39 Z M-19 40 C-19.33 41.32 -19.66 42.64 -20 44 C-18.68 44 -17.36 44 -16 44 C-16.33 42.68 -16.66 41.36 -17 40 C-17.66 40 -18.32 40 -19 40 Z M5 40 C6 42 6 42 6 42 Z M64 40 C63.67 41.32 63.34 42.64 63 44 C64.32 44 65.64 44 67 44 C66.34 42.68 65.68 41.36 65 40 C64.67 40 64.34 40 64 40 Z M1 44 C1.99 45.485 1.99 45.485 3 47 C3 46.01 3 45.02 3 44 C2.34 44 1.68 44 1 44 Z M44 44 C44.33 44.99 44.66 45.98 45 47 C45.33 46.01 45.66 45.02 46 44 C45.34 44 44.68 44 44 44 Z M15 45 C15.99 45.495 15.99 45.495 17 46 C16.67 46.99 16.34 47.98 16 49 C20.62 49 25.24 49 30 49 C29.67 47.68 29.34 46.36 29 45 C28.34 45 27.68 45 27 45 C27 45.99 27 46.98 27 48 C24.36 48 21.72 48 19 48 C19 47.01 19 46.02 19 45 C17.68 45 16.36 45 15 45 Z M6 46 C6.99 46.495 6.99 46.495 8 47 C7.67 47.99 7.34 48.98 7 50 C8.32 50 9.64 50 11 50 C11 48.68 11 47.36 11 46 C9.35 46 7.7 46 6 46 Z M36 46 C35.67 47.32 35.34 48.64 35 50 C36.98 50 38.96 50 41 50 C40.34 49.67 39.68 49.34 39 49 C39 48.34 39 47.68 39 47 C39.66 46.67 40.32 46.34 41 46 C39.35 46 37.7 46 36 46 Z M18 50 C18 50.99 18 51.98 18 53 C18.66 53 19.32 53 20 53 C20 52.34 20 51.68 20 51 C21.98 51 23.96 51 26 51 C26 51.66 26 52.32 26 53 C26.66 53 27.32 53 28 53 C28 52.34 28 51.68 28 51 C28.66 50.67 29.32 50.34 30 50 C26.04 50 22.08 50 18 50 Z M11 51 C11.33 51.66 11.66 52.32 12 53 C12.33 52.34 12.66 51.68 13 51 C12.34 51 11.68 51 11 51 Z M34 51 C34 51.99 34 52.98 34 54 C34.99 53.67 35.98 53.34 37 53 C37 52.34 37 51.68 37 51 C36.01 51 35.02 51 34 51 Z M-40 58 C-40 60.97 -40 63.94 -40 67 C-40.99 67.495 -40.99 67.495 -42 68 C-41.7452486 69.31571603 -41.47065859 70.62760376 -41.1875 71.9375 C-41.03667969 72.66839844 -40.88585937 73.39929688 -40.73046875 74.15234375 C-40.36888672 75.06693359 -40.36888672 75.06693359 -40 76 C-39.01 76.33 -38.02 76.66 -37 77 C-36.67 76.34 -36.34 75.68 -36 75 C-35.34 75.33 -34.68 75.66 -34 76 C-34.46800711 71.94393835 -34.87953208 68.53411321 -37 65 C-36.34 65 -35.68 65 -35 65 C-36.38589981 61.90837736 -37.49183541 60.50816459 -40 58 Z M86 58 C81.55316596 62.77394255 81.55316596 62.77394255 80 69 C80.66 67.68 81.32 66.36 82 65 C82 68.74161103 81.48661829 72.28953557 81 76 C81.33 75.34 81.66 74.68 82 74 C82.66 74 83.32 74 84 74 C84 74.99 84 75.98 84 77 C84.66 77 85.32 77 86 77 C86.99 73.7 87.98 70.4 89 67 C88.34 67 87.68 67 87 67 C87 64.03 87 61.06 87 58 C86.67 58 86.34 58 86 58 Z M-35 65 C-34 67 -34 67 -34 67 Z M-34 67 C-33 69 -33 69 -33 69 Z M-33 69 C-32 73 -32 73 -32 73 Z M79 69 C80 72 80 72 80 72 Z M-18 70 C-18.02688151 71.64574566 -18.04634123 73.29161413 -18.0625 74.9375 C-18.07410156 75.85402344 -18.08570312 76.77054687 -18.09765625 77.71484375 C-18.25949049 79.96593327 -18.25949049 79.96593327 -17 81 C-17.2306019 82.87897845 -17.46600084 84.75748349 -17.72460938 86.6328125 C-19.55581378 102.37337807 -18.39392838 119.38530656 -12 134 C-8.7 133.34 -5.4 132.68 -2 132 C-1.814375 130.329375 -1.62875 128.65875 -1.4375 126.9375 C-0.59228659 121.75068677 1.0262759 117.41361377 3.375 112.75 C7.45218003 104.62846917 11 95.19876842 11 86 C6.65636456 86.51101593 3.01668054 87.29343106 -1 89 C0.2096415 87.31910859 1.44348859 85.65561592 2.6875 84 C3.37199219 83.071875 4.05648437 82.14375 4.76171875 81.1875 C7 79 7 79 9.65625 78.5703125 C12 79 12 79 13.8125 80.875 C18.22533989 92.48773656 12.31219747 107.69371386 8.515625 118.921875 C7.91637726 121.337025 7.91332808 123.52118316 8 126 C9.32 126.66 10.64 127.32 12 128 C13.96139306 126.11706266 15.81988208 124.22771385 17.5078125 122.09375 C21.72653747 116.83506026 25.63049462 114.19538508 32 112 C32 111.34 32 110.68 32 110 C32.763125 110.165 33.52625 110.33 34.3125 110.5 C37.70452174 111.13107381 39.70543302 111.09818899 43 110 C43.28875 110.61875 43.5775 111.2375 43.875 111.875 C44.93720042 114.13325765 44.93720042 114.13325765 47 116 C47.99 116 48.98 116 50 116 C50 116.66 50 117.32 50 118 C50.99 118 51.98 118 53 118 C53 118.66 53 119.32 53 120 C54.485 120.495 54.485 120.495 56 121 C56.33 120.67 56.66 120.34 57 120 C56.45660208 124.56454251 55.20536179 127.9728176 53 132 C54.65 132.66 56.3 133.32 58 134 C64.67870512 120.32455617 64.38234784 106.54617982 64.1875 91.6875 C64.17242068 89.67514026 64.15873804 87.66276955 64.14648438 85.65039062 C64.11374827 80.76665151 64.06214662 75.88344977 64 71 C59.77336606 69.9700523 55.68806844 69.86433003 51.36401367 69.88647461 C50.61225861 69.88632858 49.86050354 69.88618256 49.08596802 69.8860321 C46.61327174 69.88672605 44.14065179 69.8944941 41.66796875 69.90234375 C39.94875632 69.90420977 38.22954335 69.90563281 36.5103302 69.90663147 C31.99433921 69.91044214 27.47838058 69.92026003 22.96240234 69.93133545 C18.35059039 69.94158076 13.73877319 69.94613577 9.12695312 69.95117188 C0.08462123 69.96188362 -8.95768669 69.9789426 -18 70 Z M67 71 C68.98 71.99 68.98 71.99 71 73 C70.67 72.34 70.34 71.68 70 71 C69.01 71 68.02 71 67 71 Z M-22 71 C-22.99 71.495 -22.99 71.495 -24 72 C-24 72.66 -24 73.32 -24 74 C-23.01 73.67 -22.02 73.34 -21 73 C-21.33 72.34 -21.66 71.68 -22 71 Z M78 72 C79 75 79 75 79 75 Z M67 74 C67 75.32 67 76.64 67 78 C67.66 78 68.32 78 69 78 C69.33 77.01 69.66 76.02 70 75 C69.01 74.67 68.02 74.34 67 74 Z M-45 75 C-45 76.32 -45 77.64 -45 79 C-42.08876338 80.94082441 -40.87506021 81.36072936 -37.55078125 81.8515625 C-36.70322266 81.98046875 -35.85566406 82.109375 -34.98242188 82.2421875 C-34.10134766 82.36851563 -33.22027344 82.49484375 -32.3125 82.625 C-31.41982422 82.7590625 -30.52714844 82.893125 -29.60742188 83.03125 C-27.40585573 83.36089627 -25.20349353 83.68353914 -23 84 C-23 83.01 -23 82.02 -23 81 C-24.02480469 80.86722656 -25.04960938 80.73445313 -26.10546875 80.59765625 C-27.4661574 80.41935912 -28.82683385 80.24096877 -30.1875 80.0625 C-30.86103516 79.97548828 -31.53457031 79.88847656 -32.22851562 79.79882812 C-35.85081166 79.32174523 -39.42803585 78.76987965 -43 78 C-43 77.01 -43 76.02 -43 75 C-43.66 75 -44.32 75 -45 75 Z M-22 75 C-21 78 -21 78 -21 78 Z M90 75 C90 75.99 90 76.98 90 78 C87.03 78.66 84.06 79.32 81 80 C81 80.33 81 80.66 81 81 C82.43836751 80.88541307 83.87570966 80.75790884 85.3125 80.625 C86.11300781 80.55539063 86.91351563 80.48578125 87.73828125 80.4140625 C90.27224441 80.10435574 90.27224441 80.10435574 93 78 C92.67 77.01 92.34 76.02 92 75 C91.34 75 90.68 75 90 75 Z M95 75 C96 77 96 77 96 77 Z M69 81 C69.33 81.99 69.66 82.98 70 84 C75.445 83.01 75.445 83.01 81 82 C81 81.67 81 81.34 81 81 C77.04 81 73.08 81 69 81 Z M67 89 C66.17183652 92.88611957 66.31134624 96.72841126 66.375 100.6875 C66.06010875 124.82512568 59.18352399 145.7949333 41.9375 163.25 C40.96622474 164.17502406 39.99045048 165.09553718 39 166 C41.43011443 167.21505722 42.56656797 166.98430582 45.24609375 166.6953125 C46.08333984 166.60636719 46.92058594 166.51742187 47.78320312 166.42578125 C49.09708008 166.27689453 49.09708008 166.27689453 50.4375 166.125 C51.30955078 166.03347656 52.18160156 165.94195312 53.08007812 165.84765625 C56.56641675 165.46713351 59.66000616 165.11333128 63 164 C66.58124222 163.56996183 70.16205965 163.18627691 73.75195312 162.83789062 C79.12629342 162.26596128 79.12629342 162.26596128 84 160 C83.58341729 144.33417648 83.58341729 144.33417648 79.9453125 129.2109375 C78.81274791 125.3639619 78.74300451 121.78105834 78.8125 117.8125 C78.81314453 117.10158203 78.81378906 116.39066406 78.81445312 115.65820312 C78.84107125 112.51430692 78.99936463 110.00190612 80 107 C80.09232973 105.46959123 80.13067608 103.93553364 80.1328125 102.40234375 C80.13410156 101.51869141 80.13539063 100.63503906 80.13671875 99.72460938 C80.13091797 98.34499023 80.13091797 98.34499023 80.125 96.9375 C80.12886719 96.01388672 80.13273437 95.09027344 80.13671875 94.13867188 C80.13542969 93.25630859 80.13414062 92.37394531 80.1328125 91.46484375 C80.13112061 90.25235962 80.13112061 90.25235962 80.12939453 89.01538086 C80.12664883 86.92914156 80.12664883 86.92914156 79 85 C73.69087815 84.49436935 70.87649038 85.2787834 67 89 Z M81 85 C80.8829591 94.40228594 81.11504503 103.62895894 82 113 C82.66 113 83.32 113 84 113 C86.6635577 108.31499227 88.79397408 104.55781856 88 99 C87.34 98.34 86.68 97.68 86 97 C83.57869669 94.57869669 83.47159496 93.19888623 82.875 89.875 C82.70742187 88.96492188 82.53984375 88.05484375 82.3671875 87.1171875 C82.18542969 86.06917969 82.18542969 86.06917969 82 85 C81.67 85 81.34 85 81 85 Z M-35 86 C-35.12117188 86.63808594 -35.24234375 87.27617188 -35.3671875 87.93359375 C-35.53476563 88.75988281 -35.70234375 89.58617188 -35.875 90.4375 C-36.03742188 91.26121094 -36.19984375 92.08492188 -36.3671875 92.93359375 C-36.57601562 93.61550781 -36.78484375 94.29742187 -37 95 C-37.99 95.495 -37.99 95.495 -39 96 C-39 96.99 -39 97.98 -39 99 C-39.99 99.33 -40.98 99.66 -42 100 C-41.67 100.33 -41.34 100.66 -41 101 C-40.87625 102.051875 -40.7525 103.10375 -40.625 104.1875 C-39.99814406 108.01132125 -38.88276278 110.6437707 -37 114 C-32.01007343 106.51511015 -33.88620763 94.66086399 -34 86 C-34.33 86 -34.66 86 -35 86 Z M-32 86 C-33.25796093 89.77388278 -33.18414011 93.31892849 -33.1875 97.25 C-33.19974609 97.98863281 -33.21199219 98.72726563 -33.22460938 99.48828125 C-33.23746639 104.34823471 -32.44737858 108.32256421 -31 113 C-30.01821229 120.59173055 -31.72935188 126.9483633 -33.9765625 134.16015625 C-36.18389302 142.44185818 -37.20041208 151.4323836 -37 160 C-32.06231809 162.87311857 -27.87850512 163.63515313 -22.3125 164.125 C-14.29550898 164.90149701 -14.29550898 164.90149701 -11 166 C-9.66474283 166.07973476 -8.32587917 166.10771338 -6.98828125 166.09765625 C-6.23095703 166.09443359 -5.47363281 166.09121094 -4.69335938 166.08789062 C-3.90767578 166.07951172 -3.12199219 166.07113281 -2.3125 166.0625 C-1.51521484 166.05798828 -0.71792969 166.05347656 0.10351562 166.04882812 C2.06904257 166.0370585 4.03453085 166.01912348 6 166 C4.7934375 164.6696875 4.7934375 164.6696875 3.5625 163.3125 C-13.5467348 143.13651557 -19.9546509 121.83427546 -20.4296875 95.60546875 C-20.460625 94.65542969 -20.4915625 93.70539063 -20.5234375 92.7265625 C-20.54325684 91.86627441 -20.56307617 91.00598633 -20.58349609 90.11962891 C-20.72094238 89.42015137 -20.85838867 88.72067383 -21 88 C-24.08888522 85.94074319 -24.70935927 85.7609626 -28.1875 85.875 C-29.445625 85.91625 -30.70375 85.9575 -32 86 Z M-42 109 C-41 111 -41 111 -41 111 Z M-34 109 C-36.01670288 116.43659188 -36.2137731 123.31604457 -36 131 C-32.45453518 127.45453518 -31.87708854 122.74682127 -31.8125 117.875 C-31.96284639 114.76784129 -32.24844207 112.00623172 -33 109 C-33.33 109 -33.66 109 -34 109 Z M80 110 C77.70589924 116.88230227 78.33224912 124.13643993 81.19921875 130.69921875 C84.60625215 140.4882074 84.28377017 151.76850886 84 162 C81.69 162.66 79.38 163.32 77 164 C77 164.33 77 164.66 77 165 C81.95 164.505 81.95 164.505 87 164 C86.70217549 152.1589083 86.3014941 140.83032395 83.6328125 129.26171875 C82.70629602 124.48615542 82.72823484 119.84144597 83 115 C82.34 115 81.68 115 81 115 C81 113.35 81 111.7 81 110 C80.67 110 80.34 110 80 110 Z M-41 111 C-40 113 -40 113 -40 113 Z M-40 113 C-39 115 -39 115 -39 115 Z M-39 115 C-38 117 -38 117 -38 117 Z M85 115 C86 117 86 117 86 117 Z M-39 125 C-39.33 126.65 -39.66 128.3 -40 130 C-39.34 130 -38.68 130 -38 130 C-38 128.35 -38 126.7 -38 125 C-38.33 125 -38.66 125 -39 125 Z M85 127 C86 131 86 131 86 131 Z M-37 131 C-41.22580784 141.14193881 -40.13270692 153.20650393 -40 164 C-37.75113762 164.50509208 -35.50086131 165.00389179 -33.25 165.5 C-31.99703125 165.7784375 -30.7440625 166.056875 -29.453125 166.34375 C-25.93087755 167.12446903 -25.93087755 167.12446903 -22 167 C-22 166.34 -22 165.68 -22 165 C-27.28 164.01 -32.56 163.02 -38 162 C-37.40669827 151.65959849 -36.76934951 141.32892635 -36 131 C-36.33 131 -36.66 131 -37 131 Z M-40 132 C-39 134 -39 134 -39 134 Z M86 133 C87 135 87 135 87 135 Z M-51 134 C-50 136 -50 136 -50 136 Z M-41 135 C-40 137 -40 137 -40 137 Z M-49 137 C-48.67 138.65 -48.34 140.3 -48 142 C-47.67 140.68 -47.34 139.36 -47 138 C-47.66 137.67 -48.32 137.34 -49 137 Z M87 137 C88 139 88 139 88 139 Z M94 138 C95 141 95 141 95 141 Z M-52 139 C-53.84435792 142.20931595 -54.42293406 144.97780011 -54.8515625 148.640625 C-54.98046875 149.71054688 -55.109375 150.78046875 -55.2421875 151.8828125 C-55.36851563 152.99398437 -55.49484375 154.10515625 -55.625 155.25 C-55.7590625 156.37664062 -55.893125 157.50328125 -56.03125 158.6640625 C-56.36083514 161.44199438 -56.68349064 164.22055304 -57 167 C-55.35 166.67 -53.7 166.34 -52 166 C-50.20637535 157.25607982 -49.76262635 148.91469911 -50 140 C-50.66 139.67 -51.32 139.34 -52 139 Z M98 139 C95.50045859 142.74931212 95.90567807 145.39694508 96.25 149.6875 C96.3008374 150.40486328 96.3516748 151.12222656 96.40405273 151.86132812 C96.7912404 156.75422481 97.53206068 161.30259417 99 166 C100.65 166 102.3 166 104 166 C103.58260556 162.24747637 103.13761609 158.49872805 102.6875 154.75 C102.51057617 153.15478516 102.51057617 153.15478516 102.33007812 151.52734375 C102.20439453 150.50253906 102.07871094 149.47773438 101.94921875 148.421875 C101.83924561 147.47924805 101.72927246 146.53662109 101.6159668 145.56542969 C100.93677563 142.73667789 99.89047804 141.17976828 98 139 Z M-42 140 C-41 143 -41 143 -41 143 Z M18.25 141 C13.96599497 142.31815539 9.15690762 143.07845381 5 141 C3.35744209 140.87885079 1.70947522 140.82459233 0.0625 140.8125 C-1.25041016 140.79123047 -1.25041016 140.79123047 -2.58984375 140.76953125 C-5.26244335 140.83336651 -5.26244335 140.83336651 -8 143 C-6.67818983 145.70142894 -6.67818983 145.70142894 -4 148 C-1.49274921 148.34210244 0.82615353 148.24227444 3.3515625 148.1015625 C5.87541346 148.00477766 8.07520422 148.23226909 10.5625 148.625 C13.88109944 149.06319535 16.33350115 148.8055699 19.5625 147.9375 C23.61131021 146.87091568 26.04530661 147.33220047 29.98046875 148.55078125 C32.95471986 149.21236515 35.56142456 148.73661086 38.546875 148.29296875 C43.01469795 147.75939117 47.50755979 147.92442624 52 148 C52.66 146.02 53.32 144.04 54 142 C51.18772378 141.06257459 49.41253156 140.86529156 46.5 140.875 C45.7265625 140.87242187 44.953125 140.86984375 44.15625 140.8671875 C41.81552983 140.91854187 41.81552983 140.91854187 39 142 C33.87882675 142.2954523 29.88344485 141.4742475 25 140 C21.13883312 139.77217129 21.13883312 139.77217129 18.25 141 Z M91 143 C91 145.97 91 148.94 91 152 C91.33 152 91.66 152 92 152 C92 149.03 92 146.06 92 143 C91.67 143 91.34 143 91 143 Z M88 144 C89 147 89 147 89 147 Z M-43 148 C-42 151 -42 151 -42 151 Z M89 149 C89 150.65 89 152.3 89 154 C89.33 154 89.66 154 90 154 C90 152.35 90 150.7 90 149 C89.67 149 89.34 149 89 149 Z M-44 152 C-44 153.98 -44 155.96 -44 158 C-43.67 158 -43.34 158 -43 158 C-43 156.02 -43 154.04 -43 152 C-43.33 152 -43.66 152 -44 152 Z M104 156 C105 159 105 159 105 159 Z M-59 157 C-58 160 -58 160 -58 160 Z M92 158 C92 159.65 92 161.3 92 163 C92.33 163 92.66 163 93 163 C93 161.35 93 159.7 93 158 C92.67 158 92.34 158 92 158 Z M105 160 C106 163 106 163 106 163 Z M-50 161 C-49 164 -49 164 -49 164 Z M-45 161 C-46.59555725 164.49028148 -47.32049797 167.15402433 -47 171 C-44.26070623 173.73929377 -37.03469635 172.9757256 -33.3359375 173.0625 C-31.22385558 173.0625 -29.11180725 173.03406141 -27 173 C-27.33 172.34 -27.66 171.68 -28 171 C-33.61 170.67 -39.22 170.34 -45 170 C-44.67 167.03 -44.34 164.06 -44 161 C-44.33 161 -44.66 161 -45 161 Z M-60 162 C-59 164 -59 164 -59 164 Z M91 164 C91.33 166.31 91.66 168.62 92 171 C85.4 171.33 78.8 171.66 72 172 C73.77187947 174.23325146 73.77187947 174.23325146 76.06298828 174.04345703 C76.89040527 173.94919434 77.71782227 173.85493164 78.5703125 173.7578125 C79.46621094 173.66113281 80.36210937 173.56445312 81.28515625 173.46484375 C82.69087891 173.29662109 82.69087891 173.29662109 84.125 173.125 C85.06988281 173.02058594 86.01476562 172.91617188 86.98828125 172.80859375 C89.3267913 172.5487593 91.66369244 172.27883941 94 172 C94.20970559 167.85906302 94.20970559 167.85906302 93 164 C92.34 164 91.68 164 91 164 Z M106 164 C107 166 107 166 107 166 Z M-61 165 C-60 167 -60 167 -60 167 Z M70 165 C69.67 165.66 69.34 166.32 69 167 C71.31 167 73.62 167 76 167 C76 166.34 76 165.68 76 165 C74.02 165 72.04 165 70 165 Z M77 166 C77 166.33 77 166.66 77 167 C80.63 167 84.26 167 88 167 C88 166.67 88 166.34 88 166 C84.37 166 80.74 166 77 166 Z M-63 168 C-62 170 -62 170 -62 170 Z M-51 168 C-50.67 169.65 -50.34 171.3 -50 173 C-49.67 171.68 -49.34 170.36 -49 169 C-49.66 168.67 -50.32 168.34 -51 168 Z M42 173 C25.81190539 179.09057025 12.12521119 176.23592435 -3.4375 170.125 C-9.51253084 167.83555539 -12.92427536 167.80016867 -19 170 C-17.68 171.65 -16.36 173.3 -15 175 C-15.66 175 -16.32 175 -17 175 C-17 175.66 -17 176.32 -17 177 C-16.44352783 177.01981934 -15.88705566 177.03963867 -15.3137207 177.06005859 C-12.64636548 177.15877883 -9.97943752 177.265561 -7.3125 177.375 C-5.82194092 177.43554565 -5.82194092 177.43554565 -4.30126953 177.49731445 C0.63220706 177.72014432 5.52672489 178.01574986 10.43359375 178.58203125 C11.74420776 178.73115967 11.74420776 178.73115967 13.08129883 178.88330078 C14.68634315 179.07524677 16.28958294 179.28365852 17.8894043 179.51513672 C23.54322717 180.1872406 28.87609178 179.75104381 34.5078125 179.08984375 C48.93812484 177.43763563 63.4593457 177.54454221 77.96563721 177.39910889 C81.79618661 177.35868173 85.62659455 177.30762458 89.45703125 177.2578125 C111.90853939 176.9726074 111.90853939 176.9726074 121 177 C117.55776678 173.55776678 113.26833357 173.87289488 108.59765625 173.8671875 C107.02951172 173.86416626 107.02951172 173.86416626 105.4296875 173.86108398 C104.31851563 173.86567627 103.20734375 173.87026855 102.0625 173.875 C100.34740234 173.87898804 100.34740234 173.87898804 98.59765625 173.88305664 C90.8917329 173.92514513 83.19872843 174.10313752 75.5 174.4375 C74.56937744 174.47665527 73.63875488 174.51581055 72.67993164 174.55615234 C71.39977173 174.61923584 71.39977173 174.61923584 70.09375 174.68359375 C69.34802734 174.72025146 68.60230469 174.75690918 67.83398438 174.79467773 C65.90473804 174.90391271 65.90473804 174.90391271 64 176 C63.505 173.525 63.505 173.525 63 171 C64.32 170.34 65.64 169.68 67 169 C57.53036605 165.30127239 50.64141662 169.16145091 42 173 Z M77 168 C81 169 81 169 81 169 Z M-33 169 C-33 169.33 -33 169.66 -33 170 C-30.36 170 -27.72 170 -25 170 C-25 169.67 -25 169.34 -25 169 C-27.64 169 -30.28 169 -33 169 Z M96 169 C96 169.66 96 170.32 96 171 C96.66 171 97.32 171 98 171 C98 170.34 98 169.68 98 169 C97.34 169 96.68 169 96 169 Z M-60 170 C-60 170.33 -60 170.66 -60 171 C-57.69 171 -55.38 171 -53 171 C-53 170.67 -53 170.34 -53 170 C-55.31 170 -57.62 170 -60 170 Z M100 170 C100 170.33 100 170.66 100 171 C102.31 171 104.62 171 107 171 C107 170.67 107 170.34 107 170 C104.69 170 102.38 170 100 170 Z M-66 175 C-66 175.33 -66 175.66 -66 176 C-60.76528314 176.75612577 -56.22745859 177.2063366 -51 176 C-51 175.67 -51 175.34 -51 175 C-55.95 175 -60.9 175 -66 175 Z M-49 176 C-49 176.33 -49 176.66 -49 177 C-46.03 177 -43.06 177 -40 177 C-40 176.67 -40 176.34 -40 176 C-42.97 176 -45.94 176 -49 176 Z M-35 176 C-35 176.33 -35 176.66 -35 177 C-32.69 177 -30.38 177 -28 177 C-28 176.67 -28 176.34 -28 176 C-30.31 176 -32.62 176 -35 176 Z " fill="#FFFFFF" transform="translate(109,6)"/>
<path d="M0 0 C4.29 0 8.58 0 13 0 C13.66 1.65 14.32 3.3 15 5 C13.625 7.8125 13.625 7.8125 12 10 C12.99 11.32 13.98 12.64 15 14 C15.33 9.38 15.66 4.76 16 0 C17.65 0 19.3 0 21 0 C23.3125 3 23.3125 3 25 6 C25.33 4.02 25.66 2.04 26 0 C27.32 0 28.64 0 30 0 C30 5.61 30 11.22 30 17 C25 16 25 16 23.1875 13.4375 C22.795625 12.633125 22.40375 11.82875 22 11 C21.67 12.98 21.34 14.96 21 17 C17.27299061 17.34699743 13.71327301 17.54118409 10 17 C7.4375 14.0625 7.4375 14.0625 6 11 C5.34 10.67 4.68 10.34 4 10 C4 12.31 4 14.62 4 17 C2.68 17 1.36 17 0 17 C0 11.39 0 5.78 0 0 Z M4 3 C4 4.32 4 5.64 4 7 C5.98 6.67 7.96 6.34 10 6 C10 5.34 10 4.68 10 4 C7.03 3.505 7.03 3.505 4 3 Z " fill="#FFFFFF" transform="translate(89,231)"/>
<path d="M0 0 C9.9609375 -0.1953125 9.9609375 -0.1953125 13 0 C15 2 15 2 15.25 5 C15 8 15 8 13 10 C13.99 10.99 14.98 11.98 16 13 C17.65 8.71 19.3 4.42 21 0 C22.98 0 24.96 0 27 0 C28.00419637 2.4566947 29.00350501 4.91518353 30 7.375 C30.28617188 8.07367188 30.57234375 8.77234375 30.8671875 9.4921875 C33 14.7734375 33 14.7734375 33 17 C31.35 17 29.7 17 28 17 C27.67 15.68 27.34 14.36 27 13 C25.02 13 23.04 13 21 13 C20.67 14.32 20.34 15.64 20 17 C12.17847534 17.92017937 12.17847534 17.92017937 9.2890625 15.6640625 C7.9375 14 7.9375 14 6 11 C5.67 12.98 5.34 14.96 5 17 C3.35 17 1.7 17 0 17 C0 11.39 0 5.78 0 0 Z M5 3 C5 4.32 5 5.64 5 7 C6.65 6.67 8.3 6.34 10 6 C9.67 5.01 9.34 4.02 9 3 C7.68 3 6.36 3 5 3 Z M23 7 C23 7.66 23 8.32 23 9 C23.66 9 24.32 9 25 9 C25 8.34 25 7.68 25 7 C24.34 7 23.68 7 23 7 Z " fill="#FFFFFF" transform="translate(189,231)"/>
<path d="M0 0 C0.66 0.33 1.32 0.66 2 1 C2 0.34 2 -0.32 2 -1 C3.65 -1 5.3 -1 7 -1 C8.32 1.97 9.64 4.94 11 8 C11.99 5.03 12.98 2.06 14 -1 C15.65 -1 17.3 -1 19 -1 C17.23536928 5.10737442 15.30442525 11.07433507 13 17 C11.35 17 9.7 17 8 17 C7.01 14.36 6.02 11.72 5 9 C4.3503125 10.423125 4.3503125 10.423125 3.6875 11.875 C2 15 2 15 -1 17 C-7.96517413 17.66334992 -7.96517413 17.66334992 -11.4375 15.4375 C-13.54781557 12.1454077 -14 9.91300627 -14 6 C-10.35595107 -1.02780866 -7.47756158 -1.35955665 0 0 Z M2 1 C3 3 3 3 3 3 Z M-8 4 C-8.94934202 6.92713788 -9.23176473 8.42831368 -8.0625 11.3125 C-7.711875 11.869375 -7.36125 12.42625 -7 13 C-3.70924004 12.62095792 -3.70924004 12.62095792 -1 11 C-0.74994614 8.04182893 -0.74994614 8.04182893 -1 5 C-1.66 4.34 -2.32 3.68 -3 3 C-5.9254644 2.7763932 -5.9254644 2.7763932 -8 4 Z " fill="#FFFFFF" transform="translate(63,204)"/>
<path d="M0 0 C1.98 0 3.96 0 6 0 C6.66 1.98 7.32 3.96 8 6 C8.99 4.02 9.98 2.04 11 0 C12.98 0 14.96 0 17 0 C17 5.94 17 11.88 17 18 C15.68 18 14.36 18 13 18 C12.67 16.35 12.34 14.7 12 13 C11.34 14.65 10.68 16.3 10 18 C8.68 18 7.36 18 6 18 C5.67 17.01 5.34 16.02 5 15 C4.67 15.99 4.34 16.98 4 18 C2.68 18 1.36 18 0 18 C0 12.06 0 6.12 0 0 Z " fill="#FFFFFF" transform="translate(131,203)"/>
<path d="M0 0 C2.475 0.495 2.475 0.495 5 1 C5.33 2.65 5.66 4.3 6 6 C6.66 4.02 7.32 2.04 8 0 C9.98 0 11.96 0 14 0 C14.66 1.98 15.32 3.96 16 6 C16.66 4.02 17.32 2.04 18 0 C19.32 0 20.64 0 22 0 C21.58411954 6.19518473 20.39748106 11.26689311 18 17 C16.35 16.67 14.7 16.34 13 16 C12.34 13.69 11.68 11.38 11 9 C10.01 11.64 9.02 14.28 8 17 C6.35 16.67 4.7 16.34 3 16 C2.49411853 14.08487728 1.99551609 12.16783078 1.5 10.25 C1.2215625 9.18265625 0.943125 8.1153125 0.65625 7.015625 C0 4 0 4 0 0 Z " fill="#FFFFFF" transform="translate(6,231)"/>
<path d="M0 0 C1.65 0 3.3 0 5 0 C5.33 4.29 5.66 8.58 6 13 C7.65 8.71 9.3 4.42 11 0 C12.98 0 14.96 0 17 0 C18.00419637 2.4566947 19.00350501 4.91518353 20 7.375 C20.28617187 8.07367188 20.57234375 8.77234375 20.8671875 9.4921875 C23 14.7734375 23 14.7734375 23 17 C21.35 17 19.7 17 18 17 C17.67 15.68 17.34 14.36 17 13 C15.02 13 13.04 13 11 13 C10.67 14.32 10.34 15.64 10 17 C6.7 17 3.4 17 0 17 C0 11.39 0 5.78 0 0 Z M13 7 C13 7.66 13 8.32 13 9 C13.66 9 14.32 9 15 9 C15 8.34 15 7.68 15 7 C14.34 7 13.68 7 13 7 Z " fill="#FFFFFF" transform="translate(236,231)"/>
<path d="M0 0 C2.375 1.3125 2.375 1.3125 4 3 C4 3.99 4 4.98 4 6 C2.125 6.625 2.125 6.625 0 7 C-0.66 6.34 -1.32 5.68 -2 5 C-4.10820797 5.3185177 -4.10820797 5.3185177 -6 6 C-6 8.64 -6 11.28 -6 14 C-4.35 13.67 -2.7 13.34 -1 13 C-1.99 12.67 -2.98 12.34 -4 12 C-4 10.68 -4 9.36 -4 8 C-1.36 8 1.28 8 4 8 C4.29296875 14.0546875 4.29296875 14.0546875 4 16 C0.30670342 18.46219772 -2.7149344 18.79198683 -7 18 C-9.99380345 16.00413103 -11.63808488 14.61740829 -12.44140625 11.02734375 C-12.64808593 7.46045243 -12.30903079 5.40174002 -10.125 2.5625 C-6.58225642 -0.04245851 -4.40463585 -0.35237087 0 0 Z " fill="#FFFFFF" transform="translate(44,203)"/>
<path d="M0 0 C10.625 -0.25 10.625 -0.25 14 2 C14.3125 5.5 14.3125 5.5 14 9 C13.34 9.66 12.68 10.32 12 11 C12.66 11.969375 13.32 12.93875 14 13.9375 C16 17 16 17 16 18 C13.25 18.375 13.25 18.375 10 18 C7.75 15.0625 7.75 15.0625 6 12 C5.34 11.67 4.68 11.34 4 11 C4 13.31 4 15.62 4 18 C2.68 18 1.36 18 0 18 C0 12.06 0 6.12 0 0 Z M4 4 C4 4.99 4 5.98 4 7 C5.98 7 7.96 7 10 7 C9.67 6.01 9.34 5.02 9 4 C7.35 4 5.7 4 4 4 Z " fill="#FFFFFF" transform="translate(98,203)"/>
<path d="M0 0 C1.65 0 3.3 0 5 0 C6.32 2.31 7.64 4.62 9 7 C9.33 4.69 9.66 2.38 10 0 C11.32 0 12.64 0 14 0 C14 5.94 14 11.88 14 18 C9 17 9 17 6.6875 13.9375 C6.130625 12.968125 5.57375 11.99875 5 11 C4.67 13.31 4.34 15.62 4 18 C2.68 18 1.36 18 0 18 C0 12.06 0 6.12 0 0 Z " fill="#FFFFFF" transform="translate(165,203)"/>
<path d="M0 0 C1.32 0 2.64 0 4 0 C5.32 2.31 6.64 4.62 8 7 C8.33 4.69 8.66 2.38 9 0 C10.32 0 11.64 0 13 0 C13 5.94 13 11.88 13 18 C8 17 8 17 6.1875 14.4375 C5.795625 13.633125 5.40375 12.82875 5 12 C4.67 13.98 4.34 15.96 4 18 C2.68 18 1.36 18 0 18 C0 12.06 0 6.12 0 0 Z " fill="#FFFFFF" transform="translate(115,203)"/>
<path d="M0 0 C4.29 0 8.58 0 13 0 C13 1.32 13 2.64 13 4 C10.03 4 7.06 4 4 4 C4 4.99 4 5.98 4 7 C6.97 7 9.94 7 13 7 C13 8.32 13 9.64 13 11 C10.03 11 7.06 11 4 11 C4 11.99 4 12.98 4 14 C7.3 14 10.6 14 14 14 C14 15.32 14 16.64 14 18 C9.38 18 4.76 18 0 18 C0 12.06 0 6.12 0 0 Z " fill="#FFFFFF" transform="translate(150,203)"/>
<path d="M0 0 C4.29 0 8.58 0 13 0 C13 1.32 13 2.64 13 4 C10.03 4 7.06 4 4 4 C4 4.99 4 5.98 4 7 C6.64 7 9.28 7 12 7 C12 8.32 12 9.64 12 11 C9.36 11 6.72 11 4 11 C4 11.99 4 12.98 4 14 C6.97 14 9.94 14 13 14 C13 15.32 13 16.64 13 18 C8.71 18 4.42 18 0 18 C0 12.06 0 6.12 0 0 Z " fill="#FFFFFF" transform="translate(83,203)"/>
<path d="M0 0 C1.19109375 0.00773438 1.19109375 0.00773438 2.40625 0.015625 C3.2003125 0.01046875 3.994375 0.0053125 4.8125 0 C6.90625 0.265625 6.90625 0.265625 8.90625 2.265625 C8.90625 3.255625 8.90625 4.245625 8.90625 5.265625 C6.14348823 4.74294034 3.5801624 4.15692913 0.90625 3.265625 C0.90625 3.925625 0.90625 4.585625 0.90625 5.265625 C2.02 5.554375 3.13375 5.843125 4.28125 6.140625 C7.90625 7.265625 7.90625 7.265625 9.90625 9.265625 C9.65625 12.828125 9.65625 12.828125 8.90625 16.265625 C5.77918041 17.8291598 2.32642557 17.66520987 -1.09375 17.265625 C-2.08375 16.605625 -3.07375 15.945625 -4.09375 15.265625 C-4.09375 13.945625 -4.09375 12.625625 -4.09375 11.265625 C-1.33098823 11.78830966 1.2323376 12.37432087 3.90625 13.265625 C4.23625 12.605625 4.56625 11.945625 4.90625 11.265625 C3.7925 10.976875 2.67875 10.688125 1.53125 10.390625 C-2.09375 9.265625 -2.09375 9.265625 -4.09375 7.265625 C-4.34375 4.765625 -4.34375 4.765625 -4.09375 2.265625 C-2.09375 0.265625 -2.09375 0.265625 0 0 Z " fill="#FFFFFF" transform="translate(164.09375,230.734375)"/>
<path d="M0 0 C0.7940625 0.01417969 1.588125 0.02835938 2.40625 0.04296875 C3.59734375 0.05263672 3.59734375 0.05263672 4.8125 0.0625 C6.90625 0.23046875 6.90625 0.23046875 8.90625 1.23046875 C8.90625 2.55046875 8.90625 3.87046875 8.90625 5.23046875 C6.14348823 4.70778409 3.5801624 4.12177288 0.90625 3.23046875 C0.90625 3.89046875 0.90625 4.55046875 0.90625 5.23046875 C2.02 5.51921875 3.13375 5.80796875 4.28125 6.10546875 C7.90625 7.23046875 7.90625 7.23046875 9.90625 9.23046875 C9.65625 12.79296875 9.65625 12.79296875 8.90625 16.23046875 C5.72762696 17.81978027 2.36713698 17.63388502 -1.09375 17.23046875 C-3.09375 15.91796875 -3.09375 15.91796875 -4.09375 14.23046875 C-4.09375 13.24046875 -4.09375 12.25046875 -4.09375 11.23046875 C-1.33098823 11.75315341 1.2323376 12.33916462 3.90625 13.23046875 C4.23625 12.57046875 4.56625 11.91046875 4.90625 11.23046875 C3.7925 10.94171875 2.67875 10.65296875 1.53125 10.35546875 C-2.09375 9.23046875 -2.09375 9.23046875 -4.09375 7.23046875 C-4.34375 4.73046875 -4.34375 4.73046875 -4.09375 2.23046875 C-2.09375 0.23046875 -2.09375 0.23046875 0 0 Z " fill="#FFFFFF" transform="translate(48.09375,230.76953125)"/>
<path d="M0 0 C4.29 0 8.58 0 13 0 C13 0.99 13 1.98 13 3 C10.03 3 7.06 3 4 3 C4 3.99 4 4.98 4 6 C6.97 6 9.94 6 13 6 C13 7.32 13 8.64 13 10 C10.03 10 7.06 10 4 10 C4 10.99 4 11.98 4 13 C7.3 13 10.6 13 14 13 C14 14.32 14 15.64 14 17 C9.38 17 4.76 17 0 17 C0 11.39 0 5.78 0 0 Z " fill="#FFFFFF" transform="translate(29,231)"/>
<path d="M0 0 C2.89479637 1.73687782 3.01335881 3.05152682 3.875 6.375 C4.01384714 10.40156711 3.47120257 11.88811528 1 15 C-2.20841035 16.60420518 -5.5193987 16.47462745 -9 16 C-11.5 14.5 -11.5 14.5 -13 12 C-13.6932981 8.11115549 -13.57095716 5.06034902 -11.6875 1.5625 C-8.02890822 -1.82508498 -4.56441173 -0.97808823 0 0 Z M-7.8125 4.0625 C-9.31589654 6.07818026 -9.31589654 6.07818026 -8.6875 9.1875 C-8.460625 10.115625 -8.23375 11.04375 -8 12 C-5.60280568 12.67958603 -5.60280568 12.67958603 -3 13 C-2.34 12.34 -1.68 11.68 -1 11 C-1.32326553 7.40320934 -1.32326553 7.40320934 -2 4 C-4.47999295 3.05931302 -5.46697084 2.68753463 -7.8125 4.0625 Z " fill="#FFFFFF" transform="translate(215,204)"/>
<path d="M0 0 C1.2065625 0.0309375 1.2065625 0.0309375 2.4375 0.0625 C3.4442004 2.33057204 4.44301766 4.60157754 5.4375 6.875 C5.72367188 7.51759766 6.00984375 8.16019531 6.3046875 8.82226562 C7.57461041 11.74006469 8.4375 13.84515714 8.4375 17.0625 C6.7875 17.0625 5.1375 17.0625 3.4375 17.0625 C3.1075 15.7425 2.7775 14.4225 2.4375 13.0625 C0.00032742 13.33284634 0.00032742 13.33284634 -2.5625 14.0625 C-3.5525 15.5475 -3.5525 15.5475 -4.5625 17.0625 C-5.8825 17.0625 -7.2025 17.0625 -8.5625 17.0625 C-8.02037481 11.91231073 -6.3077876 0.15384848 0 0 Z M-0.5625 6.0625 C-0.8925 7.0525 -1.2225 8.0425 -1.5625 9.0625 C-0.9025 9.0625 -0.2425 9.0625 0.4375 9.0625 C0.1075 8.0725 -0.2225 7.0825 -0.5625 6.0625 Z " fill="#FFFFFF" transform="translate(135.5625,230.9375)"/>
<path d="M0 0 C4.29 0 8.58 0 13 0 C13 0.99 13 1.98 13 3 C10.03 3 7.06 3 4 3 C4 3.99 4 4.98 4 6 C6.64 6 9.28 6 12 6 C12 7.32 12 8.64 12 10 C9.36 10 6.72 10 4 10 C4 10.99 4 11.98 4 13 C6.97 13 9.94 13 13 13 C13 14.32 13 15.64 13 17 C8.71 17 4.42 17 0 17 C0 11.39 0 5.78 0 0 Z " fill="#FFFFFF" transform="translate(74,231)"/>
<path d="M0 0 C1.32 0 2.64 0 4 0 C4.33 3.96 4.66 7.92 5 12 C6.32 12.33 7.64 12.66 9 13 C9 8.71 9 4.42 9 0 C10.65 0 12.3 0 14 0 C14.08126087 2.08268593 14.13930839 4.16628658 14.1875 6.25 C14.22230469 7.41015625 14.25710937 8.5703125 14.29296875 9.765625 C13.97617284 13.26305185 13.56311349 14.6327199 11 17 C9.0625 17.49609375 9.0625 17.49609375 7 17.4375 C5.9790625 17.43556641 5.9790625 17.43556641 4.9375 17.43359375 C2.30904903 16.84537186 1.48765866 16.26603115 0 14 C-0.29296875 10.64453125 -0.29296875 10.64453125 -0.1875 6.8125 C-0.16042969 5.54019531 -0.13335937 4.26789063 -0.10546875 2.95703125 C-0.07066406 1.98121094 -0.03585938 1.00539062 0 0 Z " fill="#FFFFFF" transform="translate(144,231)"/>
<path d="M0 0 C3.96 0 7.92 0 12 0 C12 1.32 12 2.64 12 4 C9.36 4 6.72 4 4 4 C4 4.99 4 5.98 4 7 C6.31 7 8.62 7 11 7 C11 8.32 11 9.64 11 11 C8.69 11 6.38 11 4 11 C4 13.31 4 15.62 4 18 C2.68 18 1.36 18 0 18 C0 12.06 0 6.12 0 0 Z " fill="#FFFFFF" transform="translate(220,203)"/>
<path d="M0 0 C4.62 0 9.24 0 14 0 C14 0.99 14 1.98 14 3 C12.68 3 11.36 3 10 3 C10 7.62 10 12.24 10 17 C8.35 17 6.7 17 5 17 C5 12.38 5 7.76 5 3 C3.35 3 1.7 3 0 3 C0 2.01 0 1.02 0 0 Z " fill="#FFFFFF" transform="translate(58,231)"/>
<path d="M0 0 C4.62 0 9.24 0 14 0 C14 1.32 14 2.64 14 4 C12.35 4 10.7 4 9 4 C9 8.62 9 13.24 9 18 C7.68 18 6.36 18 5 18 C5 13.38 5 8.76 5 4 C3.35 4 1.7 4 0 4 C0 2.68 0 1.36 0 0 Z " fill="#FFFFFF" transform="translate(181,203)"/>
<path d="M0 0 C1.32 0 2.64 0 4 0 C4 4.29 4 8.58 4 13 C6.64 13 9.28 13 12 13 C12 14.32 12 15.64 12 17 C8.04 17 4.08 17 0 17 C0 11.39 0 5.78 0 0 Z " fill="#FFFFFF" transform="translate(223,231)"/>
<path d="M0 0 C4.62 0 9.24 0 14 0 C14 0.99 14 1.98 14 3 C12.35 3 10.7 3 9 3 C9 7.62 9 12.24 9 17 C7.68 17 6.36 17 5 17 C5 12.38 5 7.76 5 3 C3.35 3 1.7 3 0 3 C0 2.01 0 1.02 0 0 Z " fill="#FFFFFF" transform="translate(174,231)"/>
</svg>
